<svg width="521" height="340" viewBox="0 0 521 340" fill="none" xmlns="http://www.w3.org/2000/svg">
<path d="M11.6667 319.667V323M5.00004 319.667V323M0.833374 326.333H15.8334M2.50004 321.333H14.1667C15.0872 321.333 15.8334 322.08 15.8334 323V334.667C15.8334 335.587 15.0872 336.333 14.1667 336.333H2.50004C1.57957 336.333 0.833374 335.587 0.833374 334.667V323C0.833374 322.08 1.57957 321.333 2.50004 321.333Z" stroke="#9ADBE8" stroke-width="1.66667" stroke-linecap="round" stroke-linejoin="round"/>
<path d="M26.9584 334V331.984L31.2084 328.266C31.5261 327.974 31.7969 327.708 32.0209 327.469C32.2448 327.229 32.4141 326.987 32.5287 326.742C32.6485 326.497 32.7084 326.229 32.7084 325.938C32.7084 325.62 32.6381 325.346 32.4974 325.117C32.3568 324.888 32.1641 324.711 31.9193 324.586C31.6797 324.461 31.4011 324.398 31.0834 324.398C30.7605 324.398 30.4766 324.464 30.2318 324.594C29.987 324.724 29.7969 324.911 29.6615 325.156C29.5313 325.401 29.4662 325.701 29.4662 326.055H26.7943C26.7943 325.263 26.9714 324.581 27.3256 324.008C27.6849 323.435 28.1875 322.992 28.8334 322.68C29.4792 322.362 30.2318 322.203 31.0912 322.203C31.9714 322.203 32.737 322.352 33.3881 322.648C34.0391 322.94 34.5443 323.352 34.9037 323.883C35.2631 324.409 35.4427 325.023 35.4427 325.727C35.4427 326.169 35.3516 326.607 35.1693 327.039C34.9922 327.471 34.6745 327.953 34.2162 328.484C33.7579 329.01 33.1042 329.641 32.2552 330.375L30.8646 331.656V331.734H35.5834V334H26.9584ZM41.2243 334.156C40.1931 334.156 39.3102 333.919 38.5759 333.445C37.8467 332.971 37.2868 332.292 36.8962 331.406C36.5056 330.516 36.3102 329.443 36.3102 328.188C36.3102 326.932 36.5056 325.859 36.8962 324.969C37.2868 324.073 37.8493 323.388 38.5837 322.914C39.3181 322.44 40.2009 322.203 41.2321 322.203C42.2634 322.203 43.1462 322.443 43.8806 322.922C44.6149 323.396 45.1774 324.078 45.5681 324.969C45.9587 325.859 46.154 326.932 46.154 328.188C46.154 329.443 45.9587 330.516 45.5681 331.406C45.1774 332.292 44.6149 332.971 43.8806 333.445C43.1514 333.919 42.266 334.156 41.2243 334.156ZM41.2243 331.859C41.6618 331.859 42.0316 331.719 42.3337 331.438C42.6358 331.151 42.8649 330.734 43.0212 330.188C43.1774 329.641 43.2556 328.974 43.2556 328.188C43.2556 327.396 43.1774 326.727 43.0212 326.18C42.8649 325.628 42.6358 325.208 42.3337 324.922C42.0316 324.63 41.6618 324.484 41.2243 324.484C40.5733 324.484 40.0733 324.807 39.7243 325.453C39.3754 326.094 39.2009 327.005 39.2009 328.188C39.2009 328.974 39.2764 329.641 39.4274 330.188C39.5837 330.734 39.8129 331.151 40.1149 331.438C40.4222 331.719 40.792 331.859 41.2243 331.859ZM46.9902 334V331.984L51.2402 328.266C51.558 327.974 51.8288 327.708 52.0527 327.469C52.2767 327.229 52.446 326.987 52.5606 326.742C52.6804 326.497 52.7402 326.229 52.7402 325.938C52.7402 325.62 52.6699 325.346 52.5293 325.117C52.3887 324.888 52.196 324.711 51.9512 324.586C51.7116 324.461 51.433 324.398 51.1152 324.398C50.7923 324.398 50.5085 324.464 50.2637 324.594C50.0189 324.724 49.8288 324.911 49.6934 325.156C49.5632 325.401 49.4981 325.701 49.4981 326.055H46.8262C46.8262 325.263 47.0033 324.581 47.3574 324.008C47.7168 323.435 48.2194 322.992 48.8652 322.68C49.5111 322.362 50.2637 322.203 51.1231 322.203C52.0033 322.203 52.7689 322.352 53.4199 322.648C54.071 322.94 54.5762 323.352 54.9356 323.883C55.2949 324.409 55.4746 325.023 55.4746 325.727C55.4746 326.169 55.3835 326.607 55.2012 327.039C55.0241 327.471 54.7064 327.953 54.2481 328.484C53.7897 329.01 53.1361 329.641 52.2871 330.375L50.8965 331.656V331.734H55.6152V334H46.9902ZM61.1859 334.156C60.5505 334.156 59.9411 334.055 59.3577 333.852C58.7744 333.643 58.2562 333.312 57.8031 332.859C57.3499 332.406 56.9932 331.812 56.7327 331.078C56.4723 330.339 56.3421 329.438 56.3421 328.375C56.3421 327.417 56.4567 326.557 56.6859 325.797C56.915 325.036 57.2432 324.388 57.6702 323.852C58.1025 323.315 58.6182 322.906 59.2171 322.625C59.8213 322.344 60.4932 322.203 61.2327 322.203C62.0505 322.203 62.7692 322.362 63.389 322.68C64.014 322.997 64.514 323.422 64.889 323.953C65.264 324.484 65.488 325.076 65.5609 325.727H62.7952C62.7171 325.357 62.5348 325.078 62.2484 324.891C61.9619 324.698 61.6234 324.602 61.2327 324.602C60.5244 324.602 59.9932 324.909 59.639 325.523C59.29 326.138 59.1156 326.964 59.1156 328H59.1859C59.3473 327.651 59.5765 327.352 59.8734 327.102C60.1702 326.852 60.514 326.661 60.9046 326.531C61.2952 326.396 61.7041 326.328 62.1312 326.328C62.8343 326.328 63.4515 326.49 63.9827 326.812C64.514 327.13 64.9307 327.57 65.2327 328.133C65.5348 328.69 65.6859 329.328 65.6859 330.047C65.6859 330.859 65.4958 331.576 65.1156 332.195C64.7354 332.81 64.2067 333.292 63.5296 333.641C62.8577 333.984 62.0765 334.156 61.1859 334.156ZM61.1624 331.992C61.5114 331.992 61.8213 331.911 62.0921 331.75C62.363 331.589 62.5765 331.367 62.7327 331.086C62.889 330.805 62.9671 330.49 62.9671 330.141C62.9671 329.786 62.889 329.471 62.7327 329.195C62.5765 328.914 62.363 328.693 62.0921 328.531C61.8265 328.37 61.5192 328.289 61.1702 328.289C60.8317 328.289 60.5244 328.372 60.2484 328.539C59.9775 328.701 59.764 328.922 59.6077 329.203C59.4515 329.479 59.3734 329.792 59.3734 330.141C59.3734 330.49 59.4515 330.805 59.6077 331.086C59.764 331.362 59.9775 331.583 60.2484 331.75C60.5192 331.911 60.8239 331.992 61.1624 331.992ZM68.0612 334.172C67.6393 334.172 67.2851 334.031 66.9987 333.75C66.7122 333.464 66.569 333.112 66.569 332.695C66.569 332.279 66.7122 331.93 66.9987 331.648C67.2851 331.362 67.6393 331.219 68.0612 331.219C68.4831 331.219 68.8372 331.362 69.1237 331.648C69.4101 331.93 69.5534 332.279 69.5534 332.695C69.5534 333.112 69.4101 333.464 69.1237 333.75C68.8372 334.031 68.4831 334.172 68.0612 334.172ZM77.5384 334.156C76.6321 334.156 75.8248 334.013 75.1165 333.727C74.4134 333.435 73.8587 333.042 73.4524 332.547C73.0514 332.047 72.8509 331.484 72.8509 330.859C72.8509 330.375 72.9655 329.932 73.1946 329.531C73.4238 329.13 73.7363 328.794 74.1321 328.523C74.528 328.253 74.9707 328.078 75.4603 328V327.93C74.8196 327.805 74.2936 327.503 73.8821 327.023C73.4759 326.544 73.2728 325.984 73.2728 325.344C73.2728 324.74 73.455 324.203 73.8196 323.734C74.1894 323.26 74.6972 322.888 75.3431 322.617C75.9889 322.341 76.7207 322.203 77.5384 322.203C78.3613 322.203 79.0957 322.341 79.7415 322.617C80.3873 322.888 80.8951 323.26 81.2649 323.734C81.6347 324.208 81.8196 324.745 81.8196 325.344C81.8196 325.99 81.6113 326.552 81.1946 327.031C80.778 327.505 80.2571 327.805 79.6321 327.93V328C80.1113 328.078 80.5488 328.253 80.9446 328.523C81.3405 328.794 81.6556 329.13 81.8899 329.531C82.1243 329.932 82.2415 330.375 82.2415 330.859C82.2415 331.484 82.0384 332.047 81.6321 332.547C81.2311 333.042 80.6764 333.435 79.9681 333.727C79.2597 334.013 78.4498 334.156 77.5384 334.156ZM77.5384 332.172C77.8873 332.172 78.192 332.107 78.4524 331.977C78.7129 331.841 78.916 331.656 79.0618 331.422C79.2129 331.188 79.2884 330.919 79.2884 330.617C79.2884 330.32 79.2129 330.055 79.0618 329.82C78.9108 329.586 78.7024 329.404 78.4368 329.273C78.1764 329.138 77.8769 329.07 77.5384 329.07C77.205 329.07 76.9056 329.138 76.6399 329.273C76.3795 329.404 76.1738 329.586 76.0228 329.82C75.8717 330.049 75.7962 330.315 75.7962 330.617C75.7962 330.919 75.8691 331.188 76.0149 331.422C76.166 331.651 76.3717 331.833 76.6321 331.969C76.8978 332.104 77.1998 332.172 77.5384 332.172ZM77.5384 327.078C77.8353 327.078 78.0983 327.018 78.3274 326.898C78.5566 326.779 78.7363 326.612 78.8665 326.398C79.0019 326.18 79.0696 325.935 79.0696 325.664C79.0696 325.388 79.0019 325.146 78.8665 324.938C78.7363 324.729 78.5566 324.568 78.3274 324.453C78.0983 324.333 77.8353 324.273 77.5384 324.273C77.2415 324.273 76.9785 324.333 76.7493 324.453C76.5201 324.568 76.3405 324.729 76.2103 324.938C76.08 325.146 76.0149 325.388 76.0149 325.664C76.0149 325.935 76.08 326.177 76.2103 326.391C76.3405 326.604 76.5201 326.773 76.7493 326.898C76.9837 327.018 77.2467 327.078 77.5384 327.078ZM84.7574 334.172C84.3356 334.172 83.9814 334.031 83.6949 333.75C83.4085 333.464 83.2652 333.112 83.2652 332.695C83.2652 332.279 83.4085 331.93 83.6949 331.648C83.9814 331.362 84.3356 331.219 84.7574 331.219C85.1793 331.219 85.5335 331.362 85.8199 331.648C86.1064 331.93 86.2496 332.279 86.2496 332.695C86.2496 333.112 86.1064 333.464 85.8199 333.75C85.5335 334.031 85.1793 334.172 84.7574 334.172ZM89.6409 334V331.984L93.8909 328.266C94.2086 327.974 94.4794 327.708 94.7034 327.469C94.9273 327.229 95.0966 326.987 95.2112 326.742C95.331 326.497 95.3909 326.229 95.3909 325.938C95.3909 325.62 95.3206 325.346 95.1799 325.117C95.0393 324.888 94.8466 324.711 94.6018 324.586C94.3622 324.461 94.0836 324.398 93.7659 324.398C93.443 324.398 93.1591 324.464 92.9143 324.594C92.6695 324.724 92.4794 324.911 92.344 325.156C92.2138 325.401 92.1487 325.701 92.1487 326.055H89.4768C89.4768 325.263 89.6539 324.581 90.0081 324.008C90.3674 323.435 90.87 322.992 91.5159 322.68C92.1617 322.362 92.9143 322.203 93.7737 322.203C94.6539 322.203 95.4195 322.352 96.0706 322.648C96.7216 322.94 97.2268 323.352 97.5862 323.883C97.9456 324.409 98.1252 325.023 98.1252 325.727C98.1252 326.169 98.0341 326.607 97.8518 327.039C97.6747 327.471 97.357 327.953 96.8987 328.484C96.4404 329.01 95.7867 329.641 94.9377 330.375L93.5471 331.656V331.734H98.2659V334H89.6409ZM103.907 334.156C102.876 334.156 101.993 333.919 101.258 333.445C100.529 332.971 99.9693 332.292 99.5787 331.406C99.1881 330.516 98.9928 329.443 98.9928 328.188C98.9928 326.932 99.1881 325.859 99.5787 324.969C99.9693 324.073 100.532 323.388 101.266 322.914C102.001 322.44 102.883 322.203 103.915 322.203C104.946 322.203 105.829 322.443 106.563 322.922C107.297 323.396 107.86 324.078 108.251 324.969C108.641 325.859 108.837 326.932 108.837 328.188C108.837 329.443 108.641 330.516 108.251 331.406C107.86 332.292 107.297 332.971 106.563 333.445C105.834 333.919 104.948 334.156 103.907 334.156ZM103.907 331.859C104.344 331.859 104.714 331.719 105.016 331.438C105.318 331.151 105.547 330.734 105.704 330.188C105.86 329.641 105.938 328.974 105.938 328.188C105.938 327.396 105.86 326.727 105.704 326.18C105.547 325.628 105.318 325.208 105.016 324.922C104.714 324.63 104.344 324.484 103.907 324.484C103.256 324.484 102.756 324.807 102.407 325.453C102.058 326.094 101.883 327.005 101.883 328.188C101.883 328.974 101.959 329.641 102.11 330.188C102.266 330.734 102.495 331.151 102.797 331.438C103.105 331.719 103.475 331.859 103.907 331.859ZM112.642 328.531C112.642 327.661 112.728 326.76 112.9 325.828C113.072 324.891 113.308 323.995 113.611 323.141C113.913 322.281 114.262 321.542 114.657 320.922H117.204C116.845 321.724 116.535 322.562 116.275 323.438C116.019 324.307 115.822 325.177 115.681 326.047C115.545 326.911 115.478 327.74 115.478 328.531C115.478 329.208 115.535 329.888 115.65 330.57C115.764 331.247 115.947 331.979 116.197 332.766C116.452 333.552 116.788 334.448 117.204 335.453H114.657C113.996 334.375 113.493 333.247 113.15 332.07C112.811 330.893 112.642 329.714 112.642 328.531ZM119.272 321.072H129.528V326.496H119.272V321.072ZM126.984 323.072H121.8V324.496H126.984V323.072ZM117.64 327.664H131.224V329.68H117.64V327.664ZM123.112 326.064H125.688V328.176H123.112V326.064ZM119.144 330.512H129.608V335.52H127.032V332.528H119.144V330.512ZM131.666 336.18C132.088 335.174 132.424 334.279 132.674 333.492C132.924 332.706 133.106 331.974 133.221 331.297C133.34 330.615 133.4 329.935 133.4 329.258C133.4 328.466 133.33 327.638 133.189 326.773C133.054 325.904 132.856 325.034 132.596 324.164C132.34 323.289 132.03 322.451 131.666 321.648H134.213C134.609 322.268 134.958 323.008 135.26 323.867C135.562 324.721 135.799 325.617 135.971 326.555C136.142 327.487 136.228 328.388 136.228 329.258C136.228 330.44 136.056 331.62 135.713 332.797C135.374 333.974 134.874 335.102 134.213 336.18H131.666ZM145.745 328.227V330.367H140.37V328.227H145.745ZM154.183 334.156C153.276 334.156 152.469 334.013 151.761 333.727C151.058 333.435 150.503 333.042 150.097 332.547C149.696 332.047 149.495 331.484 149.495 330.859C149.495 330.375 149.61 329.932 149.839 329.531C150.068 329.13 150.381 328.794 150.776 328.523C151.172 328.253 151.615 328.078 152.105 328V327.93C151.464 327.805 150.938 327.503 150.526 327.023C150.12 326.544 149.917 325.984 149.917 325.344C149.917 324.74 150.099 324.203 150.464 323.734C150.834 323.26 151.342 322.888 151.987 322.617C152.633 322.341 153.365 322.203 154.183 322.203C155.006 322.203 155.74 322.341 156.386 322.617C157.032 322.888 157.54 323.26 157.909 323.734C158.279 324.208 158.464 324.745 158.464 325.344C158.464 325.99 158.256 326.552 157.839 327.031C157.422 327.505 156.901 327.805 156.276 327.93V328C156.756 328.078 157.193 328.253 157.589 328.523C157.985 328.794 158.3 329.13 158.534 329.531C158.769 329.932 158.886 330.375 158.886 330.859C158.886 331.484 158.683 332.047 158.276 332.547C157.875 333.042 157.321 333.435 156.612 333.727C155.904 334.013 155.094 334.156 154.183 334.156ZM154.183 332.172C154.532 332.172 154.836 332.107 155.097 331.977C155.357 331.841 155.56 331.656 155.706 331.422C155.857 331.188 155.933 330.919 155.933 330.617C155.933 330.32 155.857 330.055 155.706 329.82C155.555 329.586 155.347 329.404 155.081 329.273C154.821 329.138 154.521 329.07 154.183 329.07C153.849 329.07 153.55 329.138 153.284 329.273C153.024 329.404 152.818 329.586 152.667 329.82C152.516 330.049 152.441 330.315 152.441 330.617C152.441 330.919 152.513 331.188 152.659 331.422C152.81 331.651 153.016 331.833 153.276 331.969C153.542 332.104 153.844 332.172 154.183 332.172ZM154.183 327.078C154.48 327.078 154.743 327.018 154.972 326.898C155.201 326.779 155.381 326.612 155.511 326.398C155.646 326.18 155.714 325.935 155.714 325.664C155.714 325.388 155.646 325.146 155.511 324.938C155.381 324.729 155.201 324.568 154.972 324.453C154.743 324.333 154.48 324.273 154.183 324.273C153.886 324.273 153.623 324.333 153.394 324.453C153.165 324.568 152.985 324.729 152.855 324.938C152.724 325.146 152.659 325.388 152.659 325.664C152.659 325.935 152.724 326.177 152.855 326.391C152.985 326.604 153.165 326.773 153.394 326.898C153.628 327.018 153.891 327.078 154.183 327.078ZM161.402 334.172C160.98 334.172 160.626 334.031 160.339 333.75C160.053 333.464 159.91 333.112 159.91 332.695C159.91 332.279 160.053 331.93 160.339 331.648C160.626 331.362 160.98 331.219 161.402 331.219C161.824 331.219 162.178 331.362 162.464 331.648C162.751 331.93 162.894 332.279 162.894 332.695C162.894 333.112 162.751 333.464 162.464 333.75C162.178 334.031 161.824 334.172 161.402 334.172ZM166.285 334V331.984L170.535 328.266C170.853 327.974 171.124 327.708 171.348 327.469C171.572 327.229 171.741 326.987 171.856 326.742C171.975 326.497 172.035 326.229 172.035 325.938C172.035 325.62 171.965 325.346 171.824 325.117C171.684 324.888 171.491 324.711 171.246 324.586C171.007 324.461 170.728 324.398 170.41 324.398C170.087 324.398 169.803 324.464 169.559 324.594C169.314 324.724 169.124 324.911 168.988 325.156C168.858 325.401 168.793 325.701 168.793 326.055H166.121C166.121 325.263 166.298 324.581 166.652 324.008C167.012 323.435 167.514 322.992 168.16 322.68C168.806 322.362 169.559 322.203 170.418 322.203C171.298 322.203 172.064 322.352 172.715 322.648C173.366 322.94 173.871 323.352 174.231 323.883C174.59 324.409 174.77 325.023 174.77 325.727C174.77 326.169 174.678 326.607 174.496 327.039C174.319 327.471 174.001 327.953 173.543 328.484C173.085 329.01 172.431 329.641 171.582 330.375L170.191 331.656V331.734H174.91V334H166.285ZM181.075 322.359V334H178.262V324.984H178.2L175.59 326.586V324.148L178.465 322.359H181.075ZM185.005 328.531C185.005 327.661 185.091 326.76 185.263 325.828C185.435 324.891 185.672 323.995 185.974 323.141C186.276 322.281 186.625 321.542 187.021 320.922H189.567C189.208 321.724 188.898 322.562 188.638 323.438C188.383 324.307 188.185 325.177 188.044 326.047C187.909 326.911 187.841 327.74 187.841 328.531C187.841 329.208 187.898 329.888 188.013 330.57C188.127 331.247 188.31 331.979 188.56 332.766C188.815 333.552 189.151 334.448 189.567 335.453H187.021C186.359 334.375 185.857 333.247 185.513 332.07C185.174 330.893 185.005 329.714 185.005 328.531ZM191.651 321.104H201.075V323.136H191.651V321.104ZM190.019 326.432H203.603V328.464H190.019V326.432ZM199.555 321.104H202.099V322.352C202.099 323.003 202.083 323.685 202.051 324.4C202.019 325.115 201.896 325.941 201.683 326.88H199.107C199.331 325.931 199.459 325.104 199.491 324.4C199.533 323.685 199.555 323.003 199.555 322.352V321.104ZM191.571 329.776H201.971V335.376H191.571V329.776ZM199.443 331.776H194.099V333.36H199.443V331.776ZM204.029 336.18C204.451 335.174 204.787 334.279 205.037 333.492C205.287 332.706 205.469 331.974 205.584 331.297C205.703 330.615 205.763 329.935 205.763 329.258C205.763 328.466 205.693 327.638 205.552 326.773C205.417 325.904 205.219 325.034 204.959 324.164C204.703 323.289 204.394 322.451 204.029 321.648H206.576C206.972 322.268 207.321 323.008 207.623 323.867C207.925 324.721 208.162 325.617 208.334 326.555C208.506 327.487 208.591 328.388 208.591 329.258C208.591 330.44 208.42 331.62 208.076 332.797C207.737 333.974 207.237 335.102 206.576 336.18H204.029Z" fill="white"/>
<path d="M15.8334 291.333C15.8334 297.167 8.33337 302.167 8.33337 302.167C8.33337 302.167 0.833374 297.167 0.833374 291.333C0.833374 289.344 1.62355 287.437 3.03007 286.03C4.4366 284.624 6.34425 283.833 8.33337 283.833C10.3225 283.833 12.2302 284.624 13.6367 286.03C15.0432 287.437 15.8334 289.344 15.8334 291.333Z" stroke="#9ADBE8" stroke-width="1.66667" stroke-linecap="round" stroke-linejoin="round"/>
<path d="M8.33337 293.833C9.71409 293.833 10.8334 292.714 10.8334 291.333C10.8334 289.953 9.71409 288.833 8.33337 288.833C6.95266 288.833 5.83337 289.953 5.83337 291.333C5.83337 292.714 6.95266 293.833 8.33337 293.833Z" stroke="#9ADBE8" stroke-width="1.66667" stroke-linecap="round" stroke-linejoin="round"/>
<path d="M28.5894 286.28C29.24 286.28 29.816 286.403 30.3174 286.648C30.8187 286.893 31.2134 287.235 31.5014 287.672C31.8 288.099 31.9494 288.595 31.9494 289.16C31.9494 289.715 31.8 290.211 31.5014 290.648C31.2134 291.085 30.8187 291.427 30.3174 291.672C29.816 291.917 29.24 292.04 28.5894 292.04C27.9494 292.04 27.3734 291.917 26.8614 291.672C26.36 291.427 25.96 291.085 25.6614 290.648C25.3734 290.211 25.2294 289.715 25.2294 289.16C25.2294 288.595 25.3734 288.099 25.6614 287.672C25.96 287.235 26.36 286.893 26.8614 286.648C27.3734 286.403 27.9494 286.28 28.5894 286.28ZM28.5894 288.168C28.376 288.168 28.184 288.205 28.0134 288.28C27.8534 288.344 27.7254 288.451 27.6294 288.6C27.544 288.749 27.5014 288.936 27.5014 289.16C27.5014 289.384 27.544 289.571 27.6294 289.72C27.7254 289.859 27.8534 289.965 28.0134 290.04C28.184 290.115 28.376 290.152 28.5894 290.152C28.8027 290.152 28.9894 290.115 29.1494 290.04C29.32 289.965 29.448 289.859 29.5334 289.72C29.6294 289.571 29.6774 289.384 29.6774 289.16C29.6774 288.936 29.6294 288.749 29.5334 288.6C29.448 288.451 29.32 288.344 29.1494 288.28C28.9894 288.205 28.8027 288.168 28.5894 288.168ZM35.8214 285.512H38.2694V300.52H35.8214V285.512ZM32.7334 285.704H35.1334V299.896H32.7334V285.704ZM30.6054 295.064H33.4854V296.984H30.6054V295.064ZM27.3734 293.608H29.8054V299.384H27.3734V293.608ZM24.9254 294.712L24.6534 292.648C25.1547 292.648 25.7094 292.648 26.3174 292.648C26.936 292.637 27.5814 292.621 28.2534 292.6C28.9254 292.568 29.5867 292.531 30.2374 292.488C30.8987 292.435 31.5174 292.371 32.0934 292.296L32.2854 294.168C31.4854 294.328 30.6374 294.445 29.7414 294.52C28.856 294.595 27.992 294.648 27.1494 294.68C26.3174 294.701 25.576 294.712 24.9254 294.712ZM44.6361 286.28H46.8761V287.32C46.8761 287.971 46.7961 288.611 46.6361 289.24C46.4868 289.859 46.2468 290.451 45.9161 291.016C45.5961 291.571 45.1855 292.077 44.6841 292.536C44.1935 292.995 43.6068 293.389 42.9241 293.72C42.2415 294.051 41.4628 294.296 40.5881 294.456L39.5001 292.312C40.2575 292.184 40.9188 291.997 41.4841 291.752C42.0601 291.496 42.5455 291.197 42.9401 290.856C43.3455 290.504 43.6708 290.131 43.9161 289.736C44.1721 289.341 44.3535 288.936 44.4601 288.52C44.5775 288.104 44.6361 287.704 44.6361 287.32V286.28ZM45.1641 286.28H47.4041V287.32C47.4041 287.715 47.4575 288.125 47.5641 288.552C47.6815 288.968 47.8628 289.373 48.1081 289.768C48.3535 290.163 48.6735 290.531 49.0681 290.872C49.4735 291.203 49.9588 291.496 50.5241 291.752C51.1001 291.997 51.7721 292.184 52.5401 292.312L51.4521 294.456C50.5775 294.296 49.7988 294.051 49.1161 293.72C48.4335 293.389 47.8415 293 47.3401 292.552C46.8495 292.093 46.4388 291.587 46.1081 291.032C45.7881 290.467 45.5481 289.875 45.3881 289.256C45.2388 288.627 45.1641 287.981 45.1641 287.32V286.28ZM39.3081 296.696H52.8921V298.792H39.3081V296.696ZM63.6749 285.512H66.2669V296.568H63.6749V285.512ZM56.0749 298.248H66.6029V300.296H56.0749V298.248ZM56.0749 295.624H58.6509V299.608H56.0749V295.624ZM54.4909 292.648H55.8189C56.8215 292.648 57.7069 292.643 58.4749 292.632C59.2535 292.611 59.9789 292.579 60.6509 292.536C61.3229 292.483 62.0002 292.403 62.6829 292.296L62.9229 294.28C62.2295 294.387 61.5309 294.467 60.8269 294.52C60.1335 294.573 59.3815 294.611 58.5709 294.632C57.7709 294.643 56.8535 294.648 55.8189 294.648H54.4909V292.648ZM54.4909 286.616H61.7549V288.648H57.0509V292.888H54.4909V286.616ZM56.2669 289.64H61.3069V291.624H56.2669V289.64ZM78.3856 289.976H82.2256V292.04H78.3856V289.976ZM74.0496 286.568H76.1296V288.472C76.1296 289.475 76.0603 290.445 75.9216 291.384C75.783 292.312 75.5536 293.176 75.2336 293.976C74.9243 294.776 74.5083 295.485 73.9856 296.104C73.4736 296.712 72.8336 297.203 72.0656 297.576L70.4656 295.512C71.1483 295.203 71.719 294.803 72.1776 294.312C72.6363 293.811 73.0043 293.245 73.2816 292.616C73.559 291.987 73.7563 291.32 73.8736 290.616C73.991 289.912 74.0496 289.197 74.0496 288.472V286.568ZM74.5936 286.568H76.6416V288.472C76.6416 289.197 76.695 289.907 76.8016 290.6C76.9083 291.293 77.0896 291.944 77.3456 292.552C77.6016 293.149 77.9483 293.683 78.3856 294.152C78.8336 294.621 79.3883 295 80.0496 295.288L78.5136 297.336C77.7563 296.973 77.1216 296.499 76.6096 295.912C76.1083 295.315 75.7083 294.632 75.4096 293.864C75.1216 293.085 74.9136 292.243 74.7856 291.336C74.6576 290.419 74.5936 289.464 74.5936 288.472V286.568ZM80.9296 285.48H83.5056V300.552H80.9296V285.48ZM90.6564 292.696H93.2324V294.68H90.6564V292.696ZM91.9844 285.624C93.723 285.624 95.0724 285.843 96.0324 286.28C97.003 286.707 97.4884 287.331 97.4884 288.152C97.4884 288.973 97.003 289.603 96.0324 290.04C95.0724 290.477 93.723 290.696 91.9844 290.696C90.235 290.696 88.875 290.477 87.9044 290.04C86.9337 289.603 86.4484 288.973 86.4484 288.152C86.4484 287.331 86.9337 286.707 87.9044 286.28C88.875 285.843 90.235 285.624 91.9844 285.624ZM91.9684 287.48C91.2964 287.48 90.7524 287.501 90.3364 287.544C89.9204 287.587 89.6164 287.656 89.4244 287.752C89.2324 287.848 89.1364 287.981 89.1364 288.152C89.1364 288.323 89.2324 288.461 89.4244 288.568C89.6164 288.664 89.9204 288.733 90.3364 288.776C90.7524 288.808 91.2964 288.824 91.9684 288.824C92.6404 288.824 93.1844 288.808 93.6004 288.776C94.0164 288.733 94.3204 288.664 94.5124 288.568C94.7044 288.461 94.8004 288.323 94.8004 288.152C94.8004 287.981 94.7044 287.848 94.5124 287.752C94.3204 287.656 94.0164 287.587 93.6004 287.544C93.1844 287.501 92.6404 287.48 91.9684 287.48ZM85.1684 291.16H98.7524V293.176H85.1684V291.16ZM86.6724 293.928H97.1524V298.04H89.2324V299.096H86.6884V296.28H94.6084V295.816H86.6724V293.928ZM86.6884 298.536H97.5204V300.456H86.6884V298.536ZM102.455 286.76H110.695V288.792H102.455V286.76ZM102.311 297.24L102.055 295.16C102.908 295.16 103.842 295.155 104.855 295.144C105.868 295.123 106.903 295.085 107.959 295.032C109.015 294.979 110.028 294.888 110.999 294.76L111.127 296.616C110.135 296.797 109.116 296.936 108.071 297.032C107.036 297.117 106.028 297.176 105.047 297.208C104.066 297.229 103.154 297.24 102.311 297.24ZM103.559 288.376H106.055V295.72H103.559V288.376ZM107.095 288.376H109.591V295.72H107.095V288.376ZM111.543 285.512H114.135V300.52H111.543V285.512ZM113.575 291.016H116.151V293.128H113.575V291.016ZM116.662 296.84H130.246V298.936H116.662V296.84ZM118.134 286.424H128.806V291.688H120.71V293.944H118.15V289.688H126.246V288.472H118.134V286.424ZM118.15 292.952H129.142V295H118.15V292.952ZM142.277 291H144.853V293.112H142.277V291ZM140.341 285.48H142.933V300.488H140.341V285.48ZM131.429 286.904H134.005V296.248H131.429V286.904ZM131.429 294.776H132.773C133.818 294.776 134.917 294.733 136.069 294.648C137.231 294.563 138.41 294.403 139.605 294.168L139.861 296.264C138.634 296.52 137.418 296.691 136.213 296.776C135.007 296.861 133.861 296.904 132.773 296.904H131.429V294.776ZM150.787 286.28H153.027V287.32C153.027 287.971 152.947 288.611 152.787 289.24C152.638 289.859 152.398 290.451 152.067 291.016C151.747 291.571 151.337 292.077 150.835 292.536C150.345 292.995 149.758 293.389 149.075 293.72C148.393 294.051 147.614 294.296 146.739 294.456L145.651 292.312C146.409 292.184 147.07 291.997 147.635 291.752C148.211 291.496 148.697 291.197 149.091 290.856C149.497 290.504 149.822 290.131 150.067 289.736C150.323 289.341 150.505 288.936 150.611 288.52C150.729 288.104 150.787 287.704 150.787 287.32V286.28ZM151.315 286.28H153.555V287.32C153.555 287.715 153.609 288.125 153.715 288.552C153.833 288.968 154.014 289.373 154.259 289.768C154.505 290.163 154.825 290.531 155.219 290.872C155.625 291.203 156.11 291.496 156.675 291.752C157.251 291.997 157.923 292.184 158.691 292.312L157.603 294.456C156.729 294.296 155.95 294.051 155.267 293.72C154.585 293.389 153.993 293 153.491 292.552C153.001 292.093 152.59 291.587 152.259 291.032C151.939 290.467 151.699 289.875 151.539 289.256C151.39 288.627 151.315 287.981 151.315 287.32V286.28ZM145.459 296.696H159.043V298.792H145.459V296.696ZM166.251 299.18C165.433 299.18 164.728 299.034 164.134 298.742C163.54 298.451 163.085 298.057 162.767 297.562C162.449 297.062 162.29 296.51 162.29 295.906C162.29 295.458 162.376 295.065 162.548 294.727C162.725 294.383 162.97 294.068 163.282 293.781C163.6 293.49 163.965 293.203 164.376 292.922L166.822 291.359C167.098 291.177 167.293 290.992 167.407 290.805C167.527 290.612 167.587 290.419 167.587 290.227C167.587 290.018 167.506 289.831 167.345 289.664C167.183 289.492 166.947 289.406 166.634 289.406C166.436 289.406 166.262 289.448 166.111 289.531C165.965 289.609 165.85 289.721 165.767 289.867C165.689 290.008 165.65 290.167 165.65 290.344C165.65 290.578 165.715 290.818 165.845 291.062C165.975 291.302 166.152 291.56 166.376 291.836C166.605 292.107 166.855 292.406 167.126 292.734L172.712 299H169.868L165.212 293.938C164.947 293.641 164.668 293.31 164.376 292.945C164.09 292.576 163.845 292.172 163.642 291.734C163.439 291.297 163.337 290.82 163.337 290.305C163.337 289.721 163.473 289.195 163.743 288.727C164.019 288.258 164.402 287.888 164.892 287.617C165.387 287.341 165.965 287.203 166.626 287.203C167.262 287.203 167.811 287.333 168.275 287.594C168.738 287.849 169.092 288.193 169.337 288.625C169.587 289.052 169.712 289.526 169.712 290.047C169.712 290.589 169.577 291.089 169.306 291.547C169.04 292.005 168.66 292.411 168.165 292.766L165.775 294.477C165.525 294.659 165.327 294.854 165.181 295.062C165.035 295.266 164.962 295.49 164.962 295.734C164.962 295.979 165.022 296.195 165.142 296.383C165.267 296.57 165.439 296.719 165.657 296.828C165.876 296.932 166.131 296.984 166.423 296.984C166.824 296.984 167.22 296.891 167.611 296.703C168.006 296.516 168.366 296.25 168.689 295.906C169.012 295.562 169.269 295.156 169.462 294.688C169.66 294.214 169.759 293.695 169.759 293.133H172.009C172.009 293.826 171.933 294.471 171.782 295.07C171.637 295.664 171.418 296.198 171.126 296.672C170.835 297.141 170.473 297.529 170.04 297.836C169.9 297.914 169.764 297.987 169.634 298.055C169.509 298.122 169.379 298.193 169.243 298.266C168.795 298.594 168.311 298.828 167.79 298.969C167.269 299.109 166.756 299.18 166.251 299.18ZM180.908 299.156C179.861 299.156 178.916 298.924 178.072 298.461C177.234 297.997 176.57 297.323 176.08 296.438C175.596 295.547 175.353 294.464 175.353 293.188C175.353 291.906 175.596 290.82 176.08 289.93C176.57 289.034 177.234 288.357 178.072 287.898C178.916 287.435 179.861 287.203 180.908 287.203C181.95 287.203 182.89 287.435 183.728 287.898C184.567 288.357 185.231 289.034 185.721 289.93C186.21 290.82 186.455 291.906 186.455 293.188C186.455 294.464 186.21 295.547 185.721 296.438C185.231 297.328 184.567 298.005 183.728 298.469C182.89 298.927 181.95 299.156 180.908 299.156ZM180.908 296.695C181.465 296.695 181.945 296.56 182.346 296.289C182.747 296.018 183.054 295.622 183.267 295.102C183.481 294.581 183.588 293.943 183.588 293.188C183.588 292.427 183.481 291.786 183.267 291.266C183.054 290.74 182.747 290.341 182.346 290.07C181.945 289.799 181.465 289.664 180.908 289.664C180.351 289.664 179.872 289.799 179.471 290.07C179.07 290.341 178.76 290.74 178.541 291.266C178.327 291.786 178.221 292.427 178.221 293.188C178.221 293.943 178.327 294.581 178.541 295.102C178.76 295.622 179.07 296.018 179.471 296.289C179.872 296.56 180.351 296.695 180.908 296.695ZM190.111 294.023V299H187.33V290.266H190.08V291.875H190.151C190.348 291.344 190.664 290.924 191.096 290.617C191.533 290.31 192.075 290.156 192.721 290.156C193.335 290.156 193.869 290.294 194.322 290.57C194.776 290.841 195.127 291.224 195.377 291.719C195.627 292.208 195.752 292.781 195.752 293.438V299H192.971V293.984C192.971 293.5 192.848 293.122 192.604 292.852C192.359 292.576 192.015 292.438 191.572 292.438C191.281 292.438 191.026 292.5 190.807 292.625C190.588 292.75 190.416 292.932 190.291 293.172C190.171 293.406 190.111 293.69 190.111 294.023ZM199.526 287.359V299H196.745V287.359H199.526ZM200.518 299V290.266H203.3V299H200.518ZM201.901 289.266C201.511 289.266 201.175 289.135 200.893 288.875C200.612 288.615 200.471 288.299 200.471 287.93C200.471 287.56 200.612 287.247 200.893 286.992C201.175 286.732 201.511 286.602 201.901 286.602C202.297 286.602 202.633 286.732 202.909 286.992C203.19 287.247 203.331 287.56 203.331 287.93C203.331 288.299 203.19 288.615 202.909 288.875C202.633 289.135 202.297 289.266 201.901 289.266ZM207.073 294.023V299H204.292V290.266H207.042V291.875H207.112C207.31 291.344 207.625 290.924 208.058 290.617C208.495 290.31 209.037 290.156 209.683 290.156C210.297 290.156 210.831 290.294 211.284 290.57C211.737 290.841 212.089 291.224 212.339 291.719C212.589 292.208 212.714 292.781 212.714 293.438V299H209.933V293.984C209.933 293.5 209.81 293.122 209.566 292.852C209.321 292.576 208.977 292.438 208.534 292.438C208.243 292.438 207.987 292.5 207.769 292.625C207.55 292.75 207.378 292.932 207.253 293.172C207.133 293.406 207.073 293.69 207.073 294.023ZM217.792 299.164C216.876 299.164 216.087 298.984 215.425 298.625C214.764 298.26 214.256 297.742 213.902 297.07C213.553 296.398 213.378 295.596 213.378 294.664C213.378 293.763 213.555 292.977 213.91 292.305C214.264 291.628 214.764 291.102 215.41 290.727C216.055 290.346 216.816 290.156 217.691 290.156C218.311 290.156 218.878 290.255 219.394 290.453C219.915 290.646 220.363 290.932 220.738 291.312C221.118 291.688 221.41 292.151 221.613 292.703C221.821 293.255 221.925 293.893 221.925 294.617V295.305H214.339V293.703H220.605L219.308 294.078C219.308 293.677 219.248 293.336 219.128 293.055C219.009 292.768 218.831 292.547 218.597 292.391C218.363 292.234 218.071 292.156 217.722 292.156C217.373 292.156 217.079 292.234 216.839 292.391C216.6 292.547 216.417 292.766 216.292 293.047C216.167 293.323 216.105 293.651 216.105 294.031V295.18C216.105 295.586 216.175 295.938 216.316 296.234C216.462 296.531 216.665 296.76 216.925 296.922C217.191 297.078 217.496 297.156 217.839 297.156C218.079 297.156 218.298 297.122 218.496 297.055C218.693 296.987 218.863 296.888 219.003 296.758C219.144 296.622 219.251 296.461 219.324 296.273L221.871 296.344C221.766 296.917 221.537 297.414 221.183 297.836C220.829 298.258 220.365 298.586 219.792 298.82C219.22 299.049 218.553 299.164 217.792 299.164Z" fill="white"/>
<g clip-path="url(#clip0_430_7)">
<path d="M169.685 167.36V151.424H105.933V135.487H169.685V119.551H105.933V103.615H169.685V87.679H89.9896V167.375H169.685V167.36Z" fill="white"/>
<path d="M297.197 167.36H313.133V103.608H345.013V87.6714H265.325V103.608H297.205V167.36H297.197Z" fill="white"/>
<path d="M18.2695 135.48H82.0216V119.544H18.2695V103.608H82.0216V87.6714H2.33337V167.367H18.2695V135.487V135.48Z" fill="white"/>
<path d="M368.917 47.816H416.733V79.6958H432.669V15.9362L416.733 3.05176e-05H368.917L352.981 15.9362V79.6883H368.917V47.8084V47.816ZM368.917 15.9362H416.733V31.8723H368.917V15.9362Z" fill="white"/>
<path d="M345.006 79.6958V63.7597H281.254V47.8236H345.006V31.8874H281.254V15.9513H345.006V3.05176e-05H265.317V79.6958H345.006Z" fill="white"/>
<path d="M520.333 63.7521H456.581V0.204529H440.645V79.6958H520.333V63.7597V63.7521Z" fill="white"/>
<path d="M241.413 47.816H257.349V15.9362L241.413 3.05176e-05H177.661V79.6958H193.597V47.816H203.035L234.915 79.6958H257.455L225.575 47.816H241.406H241.413ZM193.597 15.9362H241.413V31.8723H193.597V15.9362Z" fill="white"/>
<path d="M66.0855 79.6958L82.0216 63.7597V0H66.0855V63.7521H18.2695V0H2.33337V63.7521L18.2695 79.6882H66.0855V79.6958Z" fill="white"/>
<path d="M153.749 47.816L105.933 3.05176e-05H89.9973V79.6958H105.933V22.5409L163.081 79.6883L163.126 74.9317V79.6883H169.685V3.05176e-05H153.749V47.816Z" fill="white"/>
<path d="M352.981 87.6639V103.6H416.733V119.536H352.981V167.352H432.677V151.416H368.925V135.48H432.677V87.6639H352.981Z" fill="#00C9D7"/>
<path d="M440.638 87.6639V167.36H520.326V119.544H456.574V103.608H520.326V87.6715H440.638V87.6639ZM504.397 135.48V151.416H456.581V135.48H504.397Z" fill="#00C9D7"/>
<path d="M177.654 103.6V135.48H241.406V151.211H177.449V167.148H241.406V167.352L257.342 151.416V119.536H193.59V103.6H257.342V87.6639H193.59L177.654 103.6Z" fill="white"/>
<path d="M371.212 235.05C367.304 235.05 363.903 234.452 360.995 233.263C358.109 232.066 355.852 230.294 354.223 227.923C352.618 225.56 351.769 222.629 351.686 219.137H361.578C361.707 220.743 362.184 222.098 363.009 223.204C363.835 224.287 364.941 225.105 366.327 225.643C367.713 226.189 369.311 226.454 371.114 226.454C372.917 226.454 374.356 226.204 375.636 225.704C376.938 225.204 377.938 224.507 378.627 223.621C379.347 222.712 379.703 221.659 379.703 220.462C379.703 219.379 379.377 218.463 378.726 217.728C378.097 216.993 377.166 216.365 375.923 215.842C374.712 215.32 373.22 214.858 371.462 214.441L366.16 213.138C362.078 212.161 358.859 210.608 356.496 208.48C354.133 206.329 352.951 203.466 352.951 199.891C352.951 196.96 353.746 194.4 355.329 192.211C356.935 189.999 359.116 188.287 361.873 187.068C364.653 185.833 367.804 185.212 371.341 185.212C374.878 185.212 378.075 185.833 380.748 187.068C383.437 188.302 385.535 190.022 387.027 192.211C388.55 194.4 389.33 196.929 389.368 199.792H379.506C379.332 197.906 378.521 196.429 377.067 195.369C375.636 194.309 373.697 193.771 371.243 193.771C369.591 193.771 368.183 194.013 367.009 194.491C365.857 194.945 364.979 195.589 364.373 196.414C363.767 197.24 363.464 198.179 363.464 199.247C363.464 200.376 363.812 201.33 364.509 202.11C365.206 202.868 366.122 203.496 367.274 203.996C368.448 204.473 369.728 204.875 371.114 205.2L375.439 206.276C377.544 206.753 379.483 207.397 381.263 208.2C383.043 208.98 384.581 209.949 385.884 211.101C387.209 212.252 388.224 213.608 388.944 215.168C389.663 216.706 390.019 218.486 390.019 220.508C390.019 223.477 389.269 226.06 387.777 228.256C386.3 230.43 384.164 232.104 381.369 233.301C378.567 234.475 375.189 235.058 371.212 235.058V235.05ZM411.113 235.081C407.379 235.081 404.16 234.323 401.449 232.801C398.737 231.286 396.654 229.12 395.2 226.325C393.768 223.507 393.049 220.175 393.049 216.335C393.049 212.494 393.768 209.328 395.2 206.503C396.654 203.686 398.692 201.482 401.32 199.898C403.963 198.315 407.069 197.52 410.629 197.52C413.037 197.52 415.279 197.906 417.362 198.694C419.445 199.452 421.27 200.603 422.831 202.14C424.391 203.663 425.61 205.579 426.474 207.904C427.345 210.207 427.777 212.903 427.777 216.009V218.743H397.056V212.525H422.899L418.21 214.153C418.21 212.305 417.93 210.699 417.362 209.336C416.802 207.973 415.953 206.92 414.825 206.177C413.719 205.42 412.34 205.041 410.689 205.041C409.038 205.041 407.644 205.42 406.493 206.177C405.364 206.935 404.493 207.965 403.887 209.268C403.282 210.571 402.979 212.07 402.979 213.759V218.152C402.979 220.129 403.327 221.818 404.024 223.227C404.721 224.613 405.683 225.689 406.917 226.446C408.174 227.181 409.621 227.552 411.242 227.552C412.371 227.552 413.393 227.393 414.302 227.067C415.211 226.741 415.999 226.264 416.642 225.636C417.317 225.007 417.816 224.25 418.142 223.356L427.451 223.977C426.996 226.211 426.042 228.165 424.588 229.839C423.156 231.491 421.301 232.778 419.021 233.71C416.741 234.619 414.105 235.081 411.113 235.081ZM448.477 235.081C444.811 235.081 441.63 234.301 438.941 232.74C436.275 231.157 434.215 228.968 432.76 226.166C431.329 223.348 430.609 220.069 430.609 216.335C430.609 212.6 431.329 209.268 432.76 206.473C434.215 203.655 436.275 201.459 438.941 199.898C441.63 198.315 444.811 197.52 448.477 197.52C452.143 197.52 455.347 198.308 458.013 199.898C460.702 201.459 462.762 203.655 464.193 206.473C465.648 209.275 466.375 212.563 466.375 216.335C466.375 220.106 465.648 223.341 464.193 226.166C462.762 228.968 460.702 231.157 458.013 232.74C455.347 234.301 452.165 235.081 448.477 235.081ZM448.537 227.204C450.211 227.204 451.605 226.734 452.734 225.802C453.862 224.848 454.71 223.545 455.271 221.894C455.854 220.243 456.149 218.372 456.149 216.266C456.149 214.161 455.854 212.26 455.271 210.639C454.71 209.01 453.862 207.73 452.734 206.799C451.605 205.867 450.204 205.397 448.537 205.397C446.871 205.397 445.424 205.867 444.273 206.799C443.145 207.73 442.289 209.01 441.706 210.639C441.137 212.267 440.857 214.146 440.857 216.266C440.857 218.387 441.137 220.25 441.706 221.894C442.289 223.545 443.145 224.848 444.273 225.802C445.424 226.734 446.848 227.204 448.537 227.204ZM494.134 218.902V197.975H504.193V234.361H494.528V227.756H494.134C493.309 229.862 491.953 231.574 490.067 232.899C488.181 234.202 485.871 234.838 483.136 234.816C480.705 234.816 478.562 234.27 476.691 233.187C474.85 232.081 473.404 230.506 472.358 228.468C471.336 226.431 470.828 223.992 470.828 221.144V197.975H480.887V219.387C480.887 221.515 481.462 223.204 482.614 224.462C483.765 225.696 485.295 226.31 487.204 226.287C488.416 226.287 489.544 226.014 490.589 225.477C491.635 224.916 492.475 224.075 493.127 222.97C493.801 221.864 494.134 220.508 494.134 218.902ZM520.205 185.871V234.361H510.146V185.871H520.205Z" fill="#00C9D7"/>
</g>
<defs>
<clipPath id="clip0_430_7">
<rect width="518" height="235.081" fill="white" transform="translate(2.33337)"/>
</clipPath>
</defs>
</svg>
