<svg width="200" height="60" viewBox="0 0 200 60" fill="none" xmlns="http://www.w3.org/2000/svg">
<path d="M128.001 30.5C128.001 15.0352 115.465 2.49951 100 2.49951C99.5788 2.49951 99.1593 2.51016 98.7419 2.52932L93.0145 18.271H98.003C100.971 18.271 102.57 20.556 101.554 23.3468L94.4892 42.762L88.5573 42.7609L96.1385 21.9509H91.6782L84.097 42.7609H78.1629L87.0773 18.271L92.4406 3.53341C80.6492 6.8321 72 17.6556 72 30.5C72 43.7256 81.1709 54.8089 93.5 57.7402L98.6961 43.4605H98.7004L107.867 18.271H118.793C121.764 18.271 123.362 20.556 122.346 23.3468L116.138 40.3992C115.666 41.6983 114.148 42.7609 112.766 42.7609H104.891L99.1689 58.4877C99.4447 58.4952 99.7226 58.5005 100 58.5005C115.465 58.5005 128.001 45.9638 128.001 30.5Z" fill="black"/>
<path d="M116.943 21.9362H112.485L106.241 39.0674H110.699L116.943 21.9362Z" fill="black"/>
</svg>
