<svg width="200" height="60" viewBox="0 0 200 60" fill="none" xmlns="http://www.w3.org/2000/svg">
<mask id="mask0_296_2" style="mask-type:luminance" maskUnits="userSpaceOnUse" x="35" y="13" width="129" height="34">
<path d="M164 13.7339H35V46.5784H164V13.7339Z" fill="white"/>
</mask>
<g mask="url(#mask0_296_2)">
<path d="M70.5432 41.5005C69.5791 39.2509 68.1651 37.1941 66.4296 35.4587C64.6942 33.7233 62.5731 32.3735 60.3235 31.4736C60.0664 32.8234 59.6808 34.1732 59.1023 35.523C62.2518 36.8727 64.8227 39.3795 66.3653 42.4647C65.9797 42.4647 65.6583 42.4647 65.2727 42.4647C62.1875 42.4647 59.1665 41.4363 56.6598 39.5723L56.4027 39.3795C56.3384 39.3795 56.2099 39.2509 56.1456 39.1866C55.0529 38.2868 54.0888 37.2584 53.3175 36.1014C53.2532 36.0372 53.189 35.9086 53.1247 35.7801C53.1247 35.6515 52.9961 35.5872 52.9319 35.4587C52.8033 35.2659 52.6748 35.0088 52.5462 34.8159H52.2891C50.9393 34.9445 49.6538 35.2016 48.4326 35.6515C48.8825 36.6799 49.461 37.644 50.1681 38.5439L50.3609 38.801L50.5537 39.0581C51.3893 40.1508 52.3534 41.1792 53.3818 42.079C53.4461 42.1433 53.5746 42.2076 53.6389 42.2718C53.7032 42.3361 53.8317 42.4004 53.896 42.4647C57.174 45.0357 61.1591 46.4497 65.3369 46.4497C66.1082 46.4497 66.8795 46.4497 67.6508 46.2569C69.0649 46.0641 70.4147 45.7427 71.7644 45.2285C71.5073 43.8787 71.1217 42.5289 70.6075 41.3077L70.5432 41.5005Z" fill="black"/>
<path d="M50.94 29.674C50.8758 29.1598 50.8115 28.5813 50.8115 28.0671C50.8115 25.1747 51.7113 22.3466 53.3182 19.9042C54.9894 22.2823 55.8249 25.1747 55.8249 28.0671C55.8249 28.5813 55.8249 29.1598 55.6964 29.674C55.6964 29.8025 55.6964 29.8668 55.6964 29.9953C55.6964 30.1239 55.6964 30.1882 55.6964 30.3167C55.5036 31.7308 55.0536 33.1448 54.4109 34.4303L54.2823 34.7517C54.2823 34.8802 54.1538 34.9445 54.0895 35.0731C53.961 35.2659 53.8324 35.523 53.7039 35.7158C53.7039 35.7801 53.7681 35.9086 53.8324 35.9729C54.6037 37.0656 55.5036 38.094 56.532 38.9296C57.1747 38.0297 57.7532 37.0013 58.2674 35.9729L58.3959 35.7158C58.3959 35.6515 58.4602 35.523 58.5245 35.4587C59.0387 34.1732 59.4886 32.8234 59.7457 31.4094C59.7457 31.2808 59.7457 31.2166 59.7457 31.088C59.7457 30.9595 59.7457 30.8952 59.7457 30.7666C59.8743 29.8668 59.9385 28.9669 59.9385 28.1314C59.9385 24.082 58.5888 20.1612 56.1463 16.8832C55.3107 15.7905 54.3466 14.7622 53.3182 13.8623C51.1971 15.5977 49.526 17.7831 48.369 20.2898C47.2121 22.7323 46.5693 25.4318 46.5693 28.1956C46.5693 29.0312 46.6336 29.9311 46.7622 30.7666C48.0477 30.3167 49.3974 29.9953 50.7472 29.8025L50.94 29.674Z" fill="black"/>
<path d="M49.9757 39.6366C47.469 41.5006 44.4481 42.529 41.2986 42.529C40.9772 42.529 40.5916 42.529 40.2702 42.529C41.8128 39.4438 44.3838 36.937 47.5333 35.5873C47.5976 35.5873 47.7261 35.523 47.7904 35.4587C47.8547 35.4587 47.9832 35.3944 48.0475 35.3302C49.333 34.816 50.747 34.4946 52.1611 34.4303H52.8681C52.9967 34.4303 53.1252 34.4303 53.2538 34.4303C53.3823 34.4303 53.5109 34.4303 53.5751 34.4303C53.5751 34.366 53.6394 34.3018 53.7037 34.1732C54.2822 32.952 54.7321 31.6665 54.9249 30.3167C54.3464 30.3167 53.8322 30.2524 53.2538 30.2524C52.6753 30.2524 52.0968 30.2524 51.5183 30.381H51.1969H50.8756C49.5258 30.5738 48.176 30.8952 46.8905 31.3451C46.762 31.3451 46.6977 31.4094 46.5692 31.4737C46.4406 31.4737 46.3763 31.5379 46.2478 31.6022C43.9339 32.5021 41.8771 33.8518 40.1417 35.5873C38.4062 37.3227 36.9922 39.3152 36.0281 41.6291C35.5139 42.9146 35.1282 44.2001 34.8711 45.5499C36.1566 45.9998 37.5707 46.3855 38.9204 46.514C39.6917 46.6426 40.463 46.6426 41.2343 46.7069C45.4122 46.7069 49.4615 45.2928 52.6753 42.7218C51.6469 41.8219 50.6828 40.7935 49.8472 39.7009L49.9757 39.6366Z" fill="black"/>
<path d="M77.4854 32.5669H82.6916C84.5556 32.5669 84.7484 32.5669 85.3912 32.7597C86.0982 32.9525 86.5481 33.4667 86.8052 34.3666C86.9981 35.0093 86.998 35.5878 86.998 37.1304C86.998 39.5729 86.8052 40.537 86.291 41.1797C85.7768 41.8225 85.1341 41.951 82.6916 41.951H77.4854V32.5669ZM82.6916 39.5729C84.6841 39.5729 84.8127 39.4443 84.8127 37.3232C84.8127 35.2022 84.7484 35.6521 84.4913 35.3307C84.2985 35.0093 83.9771 34.9451 82.6274 34.9451H79.6064V39.5729H82.6274H82.6916Z" fill="black"/>
<path d="M95.225 32.5669V41.951H92.9111V32.5669H95.225Z" fill="black"/>
<path d="M110.716 36.6159V36.873C110.716 37.7728 110.716 39.3797 110.651 39.8296C110.587 40.9223 110.073 41.565 109.237 41.8221C108.53 42.015 107.759 42.0792 105.766 42.0792C103.774 42.0792 102.553 41.9507 101.91 41.4365C101.332 40.9223 101.139 40.2153 101.139 37.1301C101.139 32.7594 101.46 32.438 106.088 32.438C110.716 32.438 109.752 32.6308 110.201 33.4021C110.523 33.852 110.587 34.4305 110.587 35.8446H108.402C108.402 35.2661 108.402 35.2018 108.209 35.0733C108.016 34.8804 107.502 34.8162 105.831 34.8162C103.26 34.8162 103.26 34.8162 103.26 37.2586C103.26 39.7011 103.26 39.3154 103.581 39.5725C103.774 39.7653 103.967 39.8296 104.545 39.8296H105.831C108.402 39.8296 108.466 39.8296 108.466 38.8012V38.5441H105.574V36.6801H110.587L110.716 36.6159Z" fill="black"/>
<path d="M118.944 32.5669V41.951H116.63V32.5669H118.944Z" fill="black"/>
<path d="M133.662 32.5669V34.9451H130.449V41.951H128.135V34.9451H124.921V32.5669H133.598H133.662Z" fill="black"/>
<path d="M147.482 40.3442H142.726L142.083 41.951H139.576L143.368 32.5669H146.775L150.567 41.951H148.06L147.418 40.3442H147.482ZM145.297 34.7522H144.847L143.433 38.2874H146.646L145.232 34.7522H145.297Z" fill="black"/>
<path d="M158.858 32.5669V39.5729H164V41.951H156.608V32.5669H158.922H158.858Z" fill="black"/>
<path d="M83.3344 24.5321L81.149 18.2974H77.4854V27.8743H79.6707V20.7398L82.4345 27.8743H84.2985L87.0623 20.7398V27.8743H89.1834V18.2974H85.5197L83.3344 24.5321Z" fill="black"/>
<path d="M105.38 22.4756V24.4038H107.759C107.759 24.6609 107.759 24.918 107.759 25.1751C107.759 25.3037 107.694 25.4322 107.566 25.4965C107.502 25.5608 107.373 25.625 107.244 25.6893C106.537 25.6893 105.83 25.7536 105.123 25.7536C104.095 25.7536 103.516 25.7536 103.324 25.7536C103.131 25.7536 102.938 25.625 102.809 25.4965C102.681 25.3679 102.617 25.1751 102.552 24.9823C102.488 24.3395 102.424 23.7611 102.488 23.1183C102.488 22.5398 102.488 22.0256 102.552 21.4472C102.552 21.2543 102.617 21.1258 102.745 20.9972C102.874 20.8687 103.002 20.7401 103.195 20.7401C103.838 20.6116 104.481 20.6116 105.123 20.6116C105.83 20.6116 106.537 20.6116 107.18 20.6759C107.309 20.6759 107.373 20.6759 107.502 20.8044C107.566 20.8687 107.63 20.9972 107.694 21.0615C107.694 21.2543 107.694 21.3829 107.694 21.5757H109.944C109.944 21.1901 109.944 20.8687 109.944 20.6759C109.944 20.1617 109.815 19.5832 109.558 19.1332C109.237 18.7476 108.851 18.4262 108.337 18.362C107.373 18.1691 106.345 18.1048 105.38 18.1691C104.545 18.1691 103.645 18.1691 102.809 18.2977C102.424 18.2977 102.102 18.3619 101.781 18.4905C101.524 18.5548 101.331 18.6833 101.138 18.8762C100.753 19.2618 100.56 19.776 100.496 20.3545C100.367 21.1901 100.303 22.0899 100.367 22.9897C100.367 23.6968 100.367 24.4038 100.367 25.0466C100.367 25.4965 100.367 25.9464 100.56 26.3963C100.624 26.782 100.817 27.1034 101.074 27.3605C101.331 27.6176 101.717 27.8104 102.038 27.8747C103.002 28.0032 104.031 28.0675 104.995 28.0675C105.766 28.0675 106.473 28.0675 106.987 28.0675C107.502 28.0675 107.951 28.0032 108.466 27.8747C109.366 27.6176 109.815 26.9748 109.88 25.8821C109.88 25.1751 109.944 24.211 109.944 22.9897V22.6041H105.445L105.38 22.4756Z" fill="black"/>
<path d="M114.765 18.3618L110.908 27.9388H113.479L114.122 26.3319H118.943L119.585 27.9388H122.092L118.3 18.3618H114.829H114.765ZM114.893 24.2108L116.307 20.6114H116.757L118.171 24.2108H114.893Z" fill="black"/>
<path d="M131.348 20.6113V18.2974H123.185V20.6113H127.749L123.057 25.5604V27.8743H131.541V25.5604H126.592L131.348 20.6113Z" fill="black"/>
<path d="M141.761 18.3618C140.733 18.2332 139.64 18.1689 138.547 18.2332C137.454 18.2332 136.362 18.2332 135.205 18.3618C134.819 18.3618 134.434 18.6189 134.176 18.876C133.919 19.1331 133.727 19.5187 133.662 19.9044C133.469 20.9328 133.405 22.0255 133.469 23.1181C133.469 24.2108 133.469 25.2392 133.662 26.2676C133.662 26.6533 133.919 27.0389 134.176 27.3603C134.434 27.6174 134.819 27.8102 135.205 27.8745C136.298 28.003 137.39 28.0673 138.483 28.003C139.576 28.003 140.668 28.003 141.761 27.8745C142.147 27.8745 142.532 27.6174 142.789 27.3603C143.046 27.1032 143.239 26.7175 143.304 26.3319C143.496 25.3035 143.561 24.2108 143.496 23.1824C143.496 22.0897 143.496 21.0613 143.304 19.9687C143.304 19.583 143.046 19.1973 142.789 18.876C142.532 18.6189 142.147 18.4261 141.761 18.3618ZM141.247 24.6607C141.247 24.8536 141.118 25.0464 140.99 25.2392C140.861 25.3677 140.668 25.4963 140.411 25.4963C139.768 25.5606 139.126 25.6248 138.483 25.5606C137.84 25.5606 137.197 25.5606 136.555 25.4963C136.362 25.4963 136.169 25.3677 135.976 25.2392C135.848 25.1106 135.719 24.9178 135.719 24.6607C135.719 24.2108 135.655 23.8252 135.719 23.3752C135.719 22.7325 135.719 22.0897 135.848 21.5113C135.848 21.3827 135.912 21.1899 136.04 21.1256C136.169 20.997 136.298 20.9328 136.426 20.8685C137.069 20.74 137.776 20.7399 138.483 20.7399H139.961C140.347 20.7399 140.668 20.8042 140.99 20.9971C141.247 21.2542 141.311 21.5755 141.311 21.9612C141.311 22.2183 141.311 22.7325 141.311 23.4395C141.311 23.8252 141.311 24.2751 141.311 24.6607H141.247Z" fill="black"/>
<path d="M152.623 25.4964L149.152 18.3618H145.488V27.9388H147.738V20.8043L151.273 27.9388H154.937V18.3618H152.687V25.4964H152.623Z" fill="black"/>
<path d="M156.865 27.9388H164V25.6249H159.051V24.0823H164V21.9612H159.051V20.6114H164V18.3618H156.865V27.9388Z" fill="black"/>
<path d="M91.1123 27.9388H98.2468V25.6249H93.2977V24.0823H98.2468V21.9612H93.2977V20.6114H98.2468V18.3618H91.1123V27.9388Z" fill="black"/>
</g>
</svg>
