<svg width="200" height="60" viewBox="0 0 200 60" fill="none" xmlns="http://www.w3.org/2000/svg">
<g clip-path="url(#clip0_293_89)">
<mask id="mask0_293_89" style="mask-type:luminance" maskUnits="userSpaceOnUse" x="-3" y="3" width="206" height="55">
<path d="M-2.63184 3.49629H202.645V57.5005H-2.63184V3.49629Z" fill="white"/>
</mask>
<g mask="url(#mask0_293_89)">
<path d="M179.999 28.8587V32.5342H182.607V36.1808C182.615 36.5067 182.597 36.8581 182.54 37.1393C182.437 37.8195 181.784 38.9777 179.933 38.9777C178.093 38.9777 177.452 37.8195 177.341 37.1393C177.294 36.8581 177.274 36.5067 177.274 36.1808V24.6629C177.274 24.2555 177.302 23.8095 177.389 23.472C177.516 22.8582 178.065 21.6476 179.919 21.6476C181.866 21.6476 182.352 22.9238 182.463 23.472C182.536 23.8351 182.54 24.4441 182.54 24.4441V25.8427H188.949V25.0159C188.949 25.0159 188.978 24.1532 188.9 23.3481C188.419 18.6206 184.486 17.1249 179.976 17.1249C175.458 17.1249 171.605 18.6345 171.043 23.3481C170.993 23.7791 170.915 24.5545 170.915 25.0159V35.6113C170.915 36.0727 170.93 36.43 171.016 37.2733C171.435 41.8707 175.458 43.5004 179.958 43.5004C184.486 43.5004 188.481 41.8707 188.907 37.2733C188.982 36.43 188.99 36.0727 189 35.6113V28.8587H179.999ZM135.811 17.8029H129.375V36.4465C129.385 36.7714 129.375 37.1364 129.319 37.404C129.184 38.0299 128.649 39.2343 126.873 39.2343C125.12 39.2343 124.571 38.0299 124.447 37.404C124.382 37.1364 124.374 36.7714 124.382 36.4465V17.8029H117.949V35.8679C117.94 36.3336 117.977 37.2849 118.005 37.5341C118.449 42.2415 122.195 43.7699 126.873 43.7699C131.56 43.7699 135.304 42.2415 135.756 37.5341C135.792 37.2849 135.839 36.3336 135.811 35.8679V17.8029ZM76.6789 17.8029L73.4686 37.5024L70.2602 17.8029H59.8791L59.3285 43.0043H65.6884L65.8606 19.6746L70.2364 43.0043H76.689L81.0688 19.6746L81.2416 43.0043H87.6175L87.0483 17.8029H76.6789ZM38.243 17.8029L33.5294 43.0043H40.4032L43.9553 19.6746L47.4221 43.0043H54.2482L49.5541 17.8029H38.243ZM158.302 38.093L152.31 17.8029H142.867V42.7415H149.113L148.751 21.8022L155.186 42.7415H164.243V17.8029H157.955L158.302 38.093ZM100.52 24.3616C100.407 23.8639 100.44 23.3351 100.499 23.0588C100.681 22.252 101.228 21.3722 102.805 21.3722C104.275 21.3722 105.136 22.2796 105.136 23.6413V25.1823H111.41V23.4257C111.41 17.9957 106.494 17.1427 102.935 17.1427C98.4528 17.1427 94.7923 18.606 94.1237 22.6918C93.947 23.8037 93.9032 24.7907 94.1845 26.0502C95.2745 31.1446 104.23 32.6225 105.53 35.8443C105.759 36.4546 105.693 37.2328 105.576 37.6914C105.382 38.5298 104.812 39.3731 103.124 39.3731C101.54 39.3731 100.587 38.4716 100.587 37.1128L100.585 34.6942H93.8326V36.6167C93.8326 42.1875 98.2385 43.8683 102.984 43.8683C107.529 43.8683 111.282 42.3302 111.885 38.1609C112.172 36.0067 111.955 34.6036 111.84 34.0751C110.788 28.85 101.243 27.2782 100.52 24.3616ZM17.7637 24.2998C17.6405 23.7917 17.6693 23.2555 17.7379 22.9759C17.9117 22.1731 18.4623 21.2777 20.067 21.2777C21.5553 21.2777 22.4316 22.1938 22.4316 23.5665V25.1263H28.7788V23.3559C28.7788 17.8737 23.788 17 20.1901 17C15.6702 17 11.977 18.486 11.3013 22.6012C11.1163 23.7309 11.0846 24.7247 11.3519 25.9981C12.4537 31.1504 21.4975 32.6403 22.8133 35.9006C23.0597 36.5067 22.9852 37.2849 22.863 37.7613C22.6542 38.6085 22.0801 39.4638 20.3777 39.4638C18.7881 39.4638 17.8372 38.5467 17.8372 37.1691L17.8284 34.744H11V36.6711C11 42.3056 15.4683 44 20.2506 44C24.8483 44 28.6239 42.4483 29.2398 38.2308C29.546 36.0569 29.3163 34.6421 29.213 34.1056C28.139 28.8163 18.4881 27.2497 17.7637 24.2998Z" fill="black"/>
</g>
</g>
<defs>
<clipPath id="clip0_293_89">
<rect width="178" height="27" fill="white" transform="translate(11 17)"/>
</clipPath>
</defs>
</svg>
