<svg width="200" height="60" viewBox="0 0 200 60" fill="none" xmlns="http://www.w3.org/2000/svg">
<path d="M30.9921 29.7114C30.9299 29.7736 30.8677 29.8669 30.7744 29.9291C30.8366 29.8669 30.8988 29.7736 30.9921 29.7114Z" fill="black"/>
<path d="M43.619 33.1947C43.619 33.1014 43.619 33.0081 43.619 32.8837C43.619 32.8215 43.619 32.7282 43.5879 32.666C43.5879 32.8526 43.6501 33.0081 43.6501 33.1947H43.619Z" fill="black"/>
<path d="M30.6498 30.1157C30.6498 30.1157 30.6498 30.1157 30.6187 30.1468C30.5876 30.1779 30.5565 30.2401 30.5254 30.2712C30.5565 30.209 30.6187 30.1468 30.6498 30.1157Z" fill="black"/>
<path d="M43.3385 31.8572C43.2452 31.6395 43.1519 31.4218 43.0586 31.2041C43.1208 31.2974 43.1519 31.3907 43.183 31.484C43.2452 31.6084 43.3074 31.7328 43.3385 31.8572Z" fill="black"/>
<path d="M39.7616 39.7254V40.3784H43.6179V33.1945C43.6179 33.008 43.5868 32.8525 43.5557 32.6659C43.4624 32.2616 43.338 31.8573 43.1825 31.5152C42.4361 30.0224 40.8811 28.6852 39.7616 28.1254C37.3047 26.9125 33.6972 27.3479 31.427 29.3072C31.3337 29.4005 31.2404 29.4938 31.1471 29.5871C31.1471 29.5871 31.116 29.6182 31.0849 29.6493C31.0849 29.6493 31.0538 29.6803 31.0227 29.7114C30.9605 29.7736 30.8672 29.8669 30.805 29.9291C30.7428 29.9913 30.7117 30.0535 30.6495 30.1157C30.6184 30.1779 30.5562 30.2401 30.5251 30.2712C29.9964 30.9865 29.5922 31.8573 29.4056 32.8214C29.1257 34.4074 29.6544 35.8069 30.3385 37.1752C32.5466 40.7205 36.1852 41.7468 39.6061 39.8187C39.6061 39.8187 39.6683 39.6943 39.7616 39.7254ZM38.4865 37.424C37.1492 36.2734 35.8742 37.1441 34.5058 36.1801C31.116 33.7543 34.6613 29.5249 37.9578 31.0798C38.6731 31.4219 39.7616 32.4482 39.7616 33.4122V38.7924C39.6994 38.7924 39.6683 38.7613 39.6372 38.7302C39.264 38.3881 38.9219 37.7972 38.4865 37.424Z" fill="black"/>
<path d="M30.3389 30.5199C30.3389 30.4888 30.4011 30.4266 30.4322 30.3955C30.4322 30.4266 30.37 30.4888 30.3389 30.5199Z" fill="black"/>
<path d="M31.1167 29.5869C31.0856 29.618 31.0545 29.6491 31.0234 29.7113C31.0234 29.7113 31.0545 29.6802 31.0856 29.6491C31.0856 29.6491 31.1167 29.618 31.1478 29.5869H31.1167Z" fill="black"/>
<path d="M107.652 37.4241C107.59 37.3619 107.527 37.3308 107.496 37.2375C107.341 37.1443 107.123 36.8333 106.968 36.6778C106.905 36.6156 106.843 36.5845 106.812 36.4912C106.688 36.3979 106.594 36.2735 106.501 36.1802C106.439 36.118 106.408 36.0869 106.377 36.0558C106.314 35.9936 106.252 35.9314 106.159 35.8692H106.128C106.003 35.6826 105.848 35.5893 105.724 35.4649L105.599 35.3405C105.381 35.1539 105.164 34.9673 104.946 34.7807H104.915C104.822 34.6563 104.76 34.5941 104.666 34.5008H104.635C104.635 34.4386 104.604 34.4697 104.604 34.4697C105.195 35.0606 105.848 35.6204 106.439 36.2113C107.776 37.5174 108.989 39.0413 110.233 40.4408H108.305C106.377 38.1083 104.355 35.8381 102.085 33.941C102.054 33.941 101.37 34.5319 101.37 34.5941V40.4408H99.877V18.8269L99.9392 18.7647H101.339V32.6971L101.401 32.8526C103.298 31.2976 105.164 29.6183 106.936 27.8456H108.802C107.527 29.3073 105.972 30.3957 104.604 31.7641C105.071 31.3598 105.599 30.9244 106.066 30.5201C106.905 29.7738 107.901 28.903 108.678 28.0944C108.678 28.0633 108.989 27.7834 108.833 27.7834H106.968C105.195 29.4939 103.36 31.1732 101.463 32.7282V18.7336L101.401 18.6714H99.9392L99.877 18.7336V40.4408H101.463V34.563C101.463 34.5008 102.085 33.9721 102.178 34.0032C102.272 34.0032 103.453 35.1539 103.64 35.3094C105.288 36.8955 106.812 38.6681 108.305 40.4408H110.326V40.3786C109.455 39.4456 108.647 38.3571 107.776 37.4552L107.652 37.4241Z" fill="black"/>
<path d="M147.862 37.9216C147.862 37.8283 147.737 37.4551 147.737 37.3618V29.2449H150.878V27.7522H147.737V21.7189L147.675 21.6567H146.213L146.151 21.7189V27.7522H144.316V29.2449H146.151V36.9575C146.245 38.357 146.431 39.3832 147.52 40.1296C146.4 39.4143 146.213 37.9838 146.182 36.6465C146.12 34.9361 146.182 33.1945 146.182 31.5152C146.182 30.7377 146.182 29.9913 146.213 29.2138H144.41L144.348 29.1516V27.8455H146.182V21.7811H147.644V27.8455H150.816V29.2449H147.675V37.4862C147.675 37.5484 147.768 37.9527 147.8 38.0149C148.266 39.4143 149.821 39.2277 150.847 38.8856L150.972 40.254C150.972 40.3162 150.972 40.3473 150.909 40.3473C150.785 40.4095 150.256 40.5028 150.101 40.5339C149.292 40.6583 148.235 40.5961 147.52 40.1296C148.266 40.6272 149.075 40.7205 149.945 40.6272C150.101 40.6272 150.847 40.4717 150.972 40.3784C151.003 40.3784 151.034 40.3473 151.034 40.2851C151.003 40.0674 150.972 38.8856 150.878 38.7923C149.852 39.1655 148.297 39.3521 147.862 37.9216Z" fill="black"/>
<path d="M113.84 27.752H112.379C112.379 27.752 112.317 27.8142 112.317 27.8764C112.285 28.1252 112.317 28.6539 112.317 28.9648C112.317 29.0892 112.317 29.2447 112.317 29.3691C112.317 29.3691 112.317 29.4313 112.317 29.4624C112.317 29.4935 112.317 29.5557 112.317 29.5868C112.317 30.3643 112.317 31.1418 112.317 31.8882C112.317 31.9193 112.317 31.9815 112.317 32.0126C112.317 32.2303 112.317 32.479 112.317 32.6967C112.317 32.79 112.317 32.9144 112.317 33.0077C112.317 33.5053 112.317 34.034 112.317 34.5316C112.317 34.5627 112.317 34.6249 112.317 34.656C112.317 34.9048 112.317 35.1847 112.317 35.4335C112.317 35.5268 112.317 35.6201 112.317 35.7134C112.317 36.2731 112.317 36.8329 112.317 37.3927C112.317 37.6415 112.317 37.9214 112.317 38.1702C112.317 38.2013 112.317 38.2635 112.317 38.2946C112.317 38.5434 112.317 38.8233 112.317 39.0721C112.317 39.1964 112.317 39.352 112.317 39.4763C112.317 39.5696 112.317 39.6629 112.317 39.7562C112.317 39.8495 112.317 40.316 112.379 40.316H113.84L113.903 40.2538V27.7209L113.84 27.6587V27.752ZM112.41 40.3782V27.8142H113.809V40.3782H112.41Z" fill="black"/>
<path d="M154.02 40.4098H155.544V27.7524H153.989V40.4098H154.02ZM154.051 27.8146H155.451L155.513 27.8768V40.3787H154.051V27.8146Z" fill="black"/>
<path d="M69.1198 36.429C67.1606 37.2686 63.9263 35.8692 64.5793 33.1014C65.0769 31.0177 67.6581 30.3957 69.2442 31.1421C70.3016 31.6397 70.9547 32.9148 72.2297 32.9148H74.2823V18.6714H70.2705V27.8145C67.5338 26.7261 64.7659 27.4413 62.5579 29.525C60.381 31.6086 60.1322 34.3764 61.656 37.0821C63.4287 40.2542 66.7874 41.467 69.8973 40.4097C66.5075 41.5292 62.7134 39.8188 61.2517 36.0869C60.0078 32.8837 61.1584 30.5201 63.5531 28.7475C65.1391 27.5968 66.8496 27.1614 68.7155 27.4413C69.2442 27.5035 69.7729 27.7212 70.3016 27.8456V18.7025H74.2512V32.8526C73.3804 32.8215 72.4785 32.9459 71.6077 32.6971C70.6748 32.4172 70.2083 31.5464 69.3375 31.111C66.352 29.6183 62.6512 33.0703 65.3257 35.7448C66.3209 36.7089 67.7514 36.9577 68.9643 36.5223C70.1772 36.0869 70.8614 34.563 72.2608 34.563H74.3134C74.2201 36.7711 72.9761 38.6681 71.2967 39.7255C70.9858 39.9121 70.6437 40.1298 70.3327 40.2542C70.3949 40.2542 70.4571 40.2542 70.5504 40.192C72.6029 39.259 74.3134 37.1442 74.3755 34.5319H72.1986C70.9546 34.5319 70.2083 35.9625 69.1509 36.429H69.1198Z" fill="black"/>
<path d="M80.5337 27.7215C79.6008 27.6593 78.1702 27.6282 77.2372 27.7215C77.1439 27.7215 77.0817 27.7215 77.0195 27.7837V32.8839C77.0195 32.9461 77.1128 32.9461 77.175 32.9461C78.0769 33.0705 79.3209 32.9461 80.2849 32.9461C80.3782 32.9461 81.1557 33.0705 81.1557 32.8839V27.8459C81.1557 27.7837 80.6581 27.7215 80.5648 27.7215H80.5337ZM81.0313 32.8839H77.0817V27.8148H81.0313V32.8839Z" fill="black"/>
<path d="M58.4846 27.9075C58.4846 27.8453 58.4224 27.6898 58.3913 27.6898H54.4417L54.3795 27.752V34.7182C54.3795 36.9262 51.0519 37.3616 50.3678 35.3402C50.3678 35.2469 50.2434 34.9048 50.2434 34.8426V27.7209L50.1812 27.6587H46.2316C46.2005 27.6587 46.1694 27.7831 46.1694 27.8142C46.2627 30.2399 46.045 32.8211 46.1694 35.2469C46.4493 40.4715 51.6739 41.7777 55.3125 40.1605C53.6954 40.8758 51.2385 40.8758 49.5903 40.2538C47.4444 39.4141 46.2938 37.5793 46.2005 34.9981V27.7209H50.1812V34.9048C50.1812 35.0603 50.4611 35.6823 50.5544 35.8066C51.2696 36.8951 53.26 36.9262 54.0064 35.8689C54.1307 35.6823 54.4106 35.0603 54.4106 34.8115V27.7209H58.3913V35.3402C58.2669 37.3616 57.2407 39.1343 55.6546 40.005C57.5206 39.041 58.3913 37.2683 58.4846 34.8737C58.5779 32.5723 58.4224 30.1777 58.4846 27.8453V27.9075Z" fill="black"/>
<path d="M81.0624 34.563H77.0195V40.3785L77.0817 40.4407H81.0624L81.1246 40.3785V34.6563L81.0624 34.5941V34.563ZM81.0313 40.3785H77.0817V34.5941H81.0313V40.3785Z" fill="black"/>
<path d="M120.588 29.7737C120.122 30.178 119.5 31.2665 119.5 31.9507V40.3785H118.007V30.9244C117.945 29.867 117.851 28.8408 117.696 27.8145H118.94C119.127 27.8145 119.375 29.4316 119.313 29.6493C119.593 29.3694 119.811 29.0274 120.091 28.7164C120.091 28.7164 120.028 28.7164 119.966 28.7786C119.749 28.9652 119.562 29.3072 119.344 29.4938C119.344 29.214 119.313 28.8719 119.251 28.6231H119.22C119.189 28.3432 119.127 28.0944 119.064 27.8767H119.033C119.033 27.8145 119.033 27.7834 119.033 27.7834H119.002C118.598 27.7834 118.131 27.6901 117.758 27.7212C117.696 27.7212 117.634 27.7212 117.634 27.7834C117.634 27.8456 117.82 28.7164 117.82 28.903C117.883 29.4005 117.883 29.9292 117.945 30.4268V40.3785H119.562V31.9507C119.562 31.8263 119.717 31.2665 119.78 31.1421C120.402 29.3694 122.112 28.8097 123.667 29.0895H123.698C123.76 29.1517 123.823 29.1206 123.854 29.1206H123.885C124.071 29.2139 124.258 29.245 124.413 29.3072C123.356 28.7164 121.521 28.903 120.588 29.7426V29.7737Z" fill="black"/>
<path d="M120.061 28.7163C122.891 26.3216 127.4 27.7522 127.431 32.1683V40.3784H126L125.938 40.3162V31.764C125.938 30.7377 125.285 29.6492 124.446 29.3382C125.565 29.9602 125.845 30.7999 125.907 32.1683V40.4095H127.493V31.8884C127.524 27.7833 122.455 26.1661 120.092 28.7163H120.061Z" fill="black"/>
<path d="M30.3395 30.52C29.0956 32.3238 28.7535 34.7184 30.3395 37.2063C28.9712 34.9361 29.0023 32.4793 30.3395 30.52Z" fill="black"/>
<path d="M30.992 29.7114C30.8987 29.8047 30.8365 29.8669 30.7432 29.9602C30.8054 29.898 30.8676 29.8047 30.9609 29.7425L30.992 29.7114Z" fill="black"/>
<path d="M30.6498 30.085C30.6498 30.085 30.6498 30.1156 30.6191 30.1463C30.6191 30.1463 30.6191 30.1463 30.6498 30.1156V30.085Z" fill="black"/>
<path d="M43.7115 33.7857C43.7115 33.4747 43.6493 33.1637 43.6182 32.8838C43.6182 32.9771 43.6182 33.0704 43.6182 33.1948C43.6804 35.5894 43.6804 37.984 43.6182 40.3787C42.3743 40.4098 41.0059 40.4098 39.7619 40.3787C39.6997 40.2232 39.6997 40.0366 39.7308 39.8189C39.6997 39.8189 39.6375 39.8189 39.6064 39.8189C39.6064 39.8189 39.6686 39.8189 39.6997 39.8189C39.7308 39.8811 39.6375 40.4098 39.7619 40.4098H43.6804C43.6804 39.7878 43.6804 39.1658 43.6804 38.5438C43.6804 37.02 43.8048 35.3095 43.7115 33.7857Z" fill="black"/>
<path d="M31.4272 29.3074C31.4583 29.3074 31.4894 29.2452 31.5205 29.2141C34.1639 26.9438 38.1757 26.7572 40.9435 28.8409C41.7521 29.4318 42.5296 30.2714 43.0583 31.2355C41.7521 28.5921 38.7044 27.1926 36.0299 27.3481C34.2261 27.4414 32.3913 28.2811 31.1162 29.5873C31.2095 29.494 31.3028 29.4007 31.3961 29.3074H31.4272Z" fill="black"/>
<path d="M43.5867 32.8837C43.5556 32.5416 43.4623 32.1995 43.3379 31.8574C43.4312 32.1062 43.4934 32.3861 43.5556 32.666C43.5556 32.7282 43.5556 32.8215 43.5867 32.8837Z" fill="black"/>
<path d="M30.588 30.147C30.5258 30.2403 30.4636 30.3025 30.4014 30.3958C30.4014 30.3647 30.4636 30.3336 30.4947 30.2714C30.5258 30.2403 30.5569 30.1781 30.588 30.147Z" fill="black"/>
<path d="M39.7308 39.8189C39.7308 40.0366 39.7308 40.2232 39.7619 40.3787V39.7256C39.6686 39.6634 39.6064 39.8189 39.6064 39.8189C39.6375 39.8189 39.6686 39.8189 39.7308 39.8189Z" fill="black"/>
<path d="M29.4059 32.8216C29.5925 31.8264 29.9657 30.9868 30.5255 30.2715C30.5255 30.3026 30.4633 30.3337 30.4322 30.3959C30.4322 30.427 30.37 30.4892 30.3389 30.5203C29.0016 32.4795 28.9394 34.9363 30.3389 37.2066C29.6547 35.8382 29.126 34.4388 29.4059 32.8527V32.8216Z" fill="black"/>
<path d="M43.618 40.3784H39.7617C41.0057 40.4095 42.374 40.4095 43.618 40.3784Z" fill="black"/>
<path d="M40.9441 28.8404C38.1762 26.7568 34.1645 26.9745 31.521 29.2136C31.4899 29.2136 31.4588 29.2758 31.4277 29.3069C33.698 27.3477 37.2744 26.9123 39.7623 28.1252C40.913 28.685 42.4368 30.0222 43.1832 31.515C43.1521 31.4217 43.0899 31.3284 43.0588 31.2351C42.5301 30.271 41.7526 29.4313 40.9441 28.8404Z" fill="black"/>
<path d="M43.5568 32.6661C43.4946 32.3862 43.4324 32.1375 43.3391 31.8576C43.2769 31.7332 43.2458 31.6088 43.1836 31.4844C43.3391 31.8576 43.4635 32.2308 43.5568 32.635V32.6661Z" fill="black"/>
<path d="M43.6182 33.1948V40.3787C43.6804 37.9841 43.6804 35.5895 43.6182 33.1948Z" fill="black"/>
<path d="M30.7748 29.9291C30.7437 29.9912 30.6815 30.0223 30.6504 30.0845C30.7126 30.0223 30.7437 29.9601 30.8059 29.8979L30.7748 29.9291Z" fill="black"/>
<path d="M31.116 29.5869C31.116 29.5869 31.0853 29.6176 31.0547 29.6482C31.0547 29.6482 31.0853 29.6176 31.116 29.5869Z" fill="black"/>
<path d="M31.0535 29.6494C31.0535 29.6494 31.0228 29.6801 30.9922 29.7107C30.9922 29.7107 31.0229 29.6801 31.0535 29.6494Z" fill="black"/>
<path d="M138.719 27.8146C136.293 27.0371 133.774 27.8146 131.877 29.5873C129.234 32.0752 129.669 35.8693 131.908 38.4505C132.779 39.4768 133.65 39.9744 134.832 40.3787C130.944 39.1658 128.239 33.3503 131.691 29.805C134.054 27.3792 137.568 26.7573 140.336 28.6854C141.767 29.6806 143.011 31.2355 143.104 33.2259C143.104 33.3503 143.104 34.0344 143.042 34.0344H131.566C131.691 35.465 132.437 36.8956 133.37 37.8285C135.018 39.4457 137.755 39.6323 139.621 38.3572C140.398 37.7974 140.989 37.02 141.425 36.1181L142.7 36.6779C141.704 38.8859 139.839 40.3165 137.662 40.5653C136.791 40.6585 135.671 40.5963 134.832 40.3476C134.925 40.3787 134.987 40.4097 135.111 40.4408H135.143C135.422 40.5652 135.765 40.6274 136.076 40.6274C136.138 40.6274 136.2 40.6274 136.231 40.6585C136.604 40.6585 137.04 40.6585 137.413 40.6585H137.537C138.999 40.4098 139.528 40.0988 140.772 39.2591C140.834 39.228 140.927 39.2591 140.958 39.1969C140.989 39.1658 140.989 39.0725 141.051 39.0103C141.518 38.4816 141.86 38.2017 142.233 37.5797C142.358 37.362 142.637 36.9267 142.7 36.7401C142.7 36.6779 142.731 36.6468 142.7 36.5846C142.637 36.4913 141.549 36.1181 141.362 36.0248C140.274 38.4816 137.973 39.4768 135.64 38.9792C133.463 38.4816 131.939 36.4913 131.566 34.0655H143.042C143.042 34.0655 143.104 34.0033 143.104 33.9411C143.166 33.5369 143.104 32.6661 142.98 32.2307C142.513 30.1471 140.461 28.3433 138.688 27.7835L138.719 27.8146Z" fill="black"/>
<path d="M104.635 31.702H104.51C104.013 32.1685 103.515 32.5727 103.018 32.977L104.448 34.3765C104.448 34.4076 104.541 34.4076 104.541 34.4076C104.137 33.9722 103.64 33.5057 103.266 33.0703C103.235 33.0392 103.173 33.0081 103.111 32.9459C103.111 32.9459 103.36 32.6971 103.422 32.666C103.484 32.6349 103.546 32.666 103.608 32.666C103.857 32.6038 104.79 31.6709 105.039 31.4532C105.257 31.2666 105.474 31.0489 105.661 30.8312C105.785 30.7068 105.972 30.7068 105.972 30.458C105.568 30.8934 105.101 31.2977 104.635 31.6709V31.702Z" fill="black"/>
<path d="M104.635 31.7021C105.102 31.3289 105.568 30.9557 105.972 30.4893C105.506 30.8935 104.977 31.3289 104.511 31.7332H104.635V31.7021Z" fill="black"/>
<path d="M89.8316 27.3481C87.468 27.4725 84.4203 29.2763 83.4874 31.8575C83.3941 32.1063 83.2386 32.6039 83.2697 32.8527C83.2697 32.8838 83.2697 32.946 83.3319 32.946H85.7265C87.0016 32.946 87.8412 31.391 89.1474 30.9867C91.1066 30.3648 94.1543 31.8575 93.3147 34.5631C92.7238 36.4602 90.4536 37.0822 88.9297 36.4913C87.8101 36.0559 87.0016 34.5631 85.7887 34.5631H83.3008C83.3319 35.1229 83.5496 35.7138 83.7673 36.2425C84.6069 38.3261 86.193 39.85 88.1211 40.472C87.8101 40.3787 87.3747 40.161 87.0949 40.0055C85.2289 38.9792 83.7362 36.9267 83.363 34.6253H85.6954C87.0638 34.6253 87.7168 36.0559 88.8986 36.5535C90.4847 37.2376 92.9415 36.4913 93.4391 34.4698C94.0611 31.9508 91.4487 30.5202 89.5828 30.8623C88.3077 31.1111 88.0278 31.7642 87.0638 32.4484C85.9753 33.1948 84.6069 32.8527 83.3941 32.946C83.4563 31.7331 84.1715 30.6135 84.949 29.8361C87.6546 27.0994 91.4487 26.664 94.5275 28.9031C97.6997 31.1733 98.1972 34.6564 95.8026 37.984C93.9989 40.5031 90.8579 41.436 88.1211 40.5653C91.7908 41.7781 95.6471 39.8811 97.0155 35.776C98.6948 30.8312 93.719 27.2237 89.8938 27.4414L89.8316 27.3481Z" fill="black"/>
<path d="M171 37.1447L169.663 36.4916C168.513 38.7618 166.149 39.5704 163.972 38.9484C161.484 38.2331 159.369 34.9366 160.24 32.0133C160.396 31.4535 161.142 30.365 161.546 30.023C163.226 28.6235 165.776 28.779 167.58 29.8053C168.139 30.1163 168.575 30.5516 168.979 31.0803L170.254 30.5827C170.441 30.4894 170.161 30.2407 170.067 30.1474C167.393 27.3484 163.288 26.4777 160.333 29.2144C158.125 31.2669 157.97 34.1591 159.369 36.8959C160.458 39.0417 162.51 40.5034 164.687 40.6899C164.75 40.6899 164.812 40.6899 164.843 40.721C165.216 40.721 165.651 40.721 166.025 40.721C166.025 40.6589 166.087 40.6899 166.149 40.6899C166.615 40.6899 166.926 40.5345 167.362 40.4101C164.407 41.343 161.08 40.0058 159.494 36.9892C157.908 34.0347 158.25 30.8937 160.8 28.9034C163.817 26.571 167.859 27.6283 170.285 30.4894C170.099 30.5827 169.103 31.0803 168.979 31.0181C166.367 27.5972 159.618 28.4058 159.991 33.9725C160.302 38.2331 165.123 40.721 168.233 38.3575C168.824 37.9221 169.321 37.269 169.663 36.5849L170.907 37.1757C171.032 37.3623 169.725 38.8862 169.539 39.0728C168.948 39.6326 168.046 40.1924 167.331 40.4101C168.699 39.9747 169.663 39.2594 170.534 38.0154C170.658 37.8288 170.876 37.5178 170.969 37.3001C170.969 37.269 171.032 37.2379 170.969 37.1757L171 37.1447Z" fill="black"/>
<path d="M78.1381 24.5492C76.8319 23.4296 78.0759 20.8173 79.7242 21.7503C81.4968 22.7455 80.0351 25.8554 78.2936 24.6425C80.0973 25.9176 81.5279 22.8388 79.8174 21.7503C78.1692 20.6929 76.7075 23.3052 78.1692 24.5492H78.1381Z" fill="black"/>
<path d="M113.623 21.8129C112.006 21.0976 111.01 23.741 112.565 24.5496C111.632 24.0831 111.57 22.4348 112.503 21.9062C113.623 21.2842 114.773 22.4659 114.307 23.7721C114.058 24.5185 113.187 24.8606 112.565 24.5496C114.276 25.4515 115.271 22.5281 113.623 21.8129Z" fill="black"/>
<path d="M155.015 21.719C153.491 21.5013 152.869 23.6472 154.051 24.4558C153.366 23.9271 153.304 22.652 153.988 22.0611C154.953 21.2215 156.259 22.1544 156.041 23.5228C155.886 24.4247 154.953 24.9222 154.206 24.5801C154.859 24.9222 155.232 24.7045 155.823 24.3003C155.917 23.9582 156.103 23.6783 156.134 23.3051C156.165 22.5587 155.668 21.8123 155.015 21.719Z" fill="black"/>
<path d="M112.317 38.3882C112.192 38.3882 112.255 38.4504 112.224 38.5437C112.224 38.7614 112.13 39.0102 112.317 39.1657C112.224 38.9169 112.255 38.637 112.317 38.3882Z" fill="black"/>
<path d="M112.316 39.1657C112.316 38.9169 112.316 38.637 112.316 38.3882C112.254 38.637 112.222 38.9169 112.316 39.1657Z" fill="black"/>
<path d="M112.316 37.4551C112.161 37.6106 112.223 38.046 112.316 38.2326C112.254 37.9838 112.254 37.7039 112.316 37.4551Z" fill="black"/>
<path d="M112.316 38.2638C112.316 38.015 112.316 37.7351 112.316 37.4863C112.254 37.7351 112.254 38.015 112.316 38.2638Z" fill="black"/>
<path d="M112.317 28.9648C112.193 29.027 112.193 29.338 112.317 29.3691C112.255 29.2447 112.255 29.0892 112.317 28.9648Z" fill="black"/>
<path d="M112.316 29.3691C112.316 29.2447 112.316 29.0892 112.316 28.9648C112.254 29.0892 112.254 29.2447 112.316 29.3691Z" fill="black"/>
<path d="M112.317 39.6011C112.161 39.6944 112.161 39.7877 112.317 39.881C112.255 39.7877 112.255 39.6944 112.317 39.6011Z" fill="black"/>
<path d="M112.316 39.881C112.316 39.7877 112.316 39.6944 112.316 39.6011C112.254 39.6944 112.254 39.7877 112.316 39.881Z" fill="black"/>
<path d="M112.317 35.527C112.193 35.4648 112.193 35.8691 112.317 35.8069C112.255 35.7136 112.255 35.6203 112.317 35.527Z" fill="black"/>
<path d="M112.316 35.8067C112.316 35.7134 112.316 35.6202 112.316 35.5269C112.254 35.6202 112.254 35.7134 112.316 35.8067Z" fill="black"/>
<path d="M112.317 32.7593C112.254 32.8526 112.161 33.1325 112.317 33.0703C112.254 32.977 112.285 32.8526 112.317 32.7593Z" fill="black"/>
<path d="M112.316 33.0703C112.316 32.977 112.316 32.8526 112.316 32.7593C112.285 32.8837 112.254 32.977 112.316 33.0703Z" fill="black"/>
<path d="M136.262 40.6898C136.169 40.6898 136.138 40.6898 136.106 40.6587C136.106 40.8453 136.231 40.7209 136.262 40.6898Z" fill="black"/>
<path d="M136.106 40.6587C136.106 40.6898 136.2 40.7209 136.262 40.6898C136.262 40.6276 136.138 40.6587 136.106 40.6587Z" fill="black"/>
<path d="M107.652 37.4239C107.652 37.1751 107.558 37.2684 107.496 37.2373C107.558 37.2684 107.62 37.3306 107.652 37.4239Z" fill="black"/>
<path d="M107.652 37.4239C107.652 37.3306 107.558 37.2684 107.496 37.2373C107.527 37.3306 107.589 37.3617 107.652 37.4239Z" fill="black"/>
<path d="M106.937 36.6773C106.937 36.5218 106.812 36.5218 106.781 36.4907C106.843 36.5529 106.906 36.6151 106.937 36.6773Z" fill="black"/>
<path d="M106.937 36.6773C106.906 36.6151 106.843 36.5529 106.781 36.4907C106.781 36.584 106.875 36.6151 106.937 36.6773Z" fill="black"/>
<path d="M106.47 36.1802C106.47 36.0559 106.47 36.0559 106.377 35.9937C106.439 36.0248 106.501 36.1181 106.501 36.1802H106.47Z" fill="black"/>
<path d="M106.346 36.0247C106.377 36.0558 106.408 36.118 106.47 36.1491C106.47 36.0869 106.408 35.9936 106.346 36.0247Z" fill="black"/>
<path d="M164.656 40.6587C164.718 40.8142 164.812 40.7209 164.812 40.6898C164.75 40.6898 164.687 40.6898 164.656 40.6587Z" fill="black"/>
<path d="M164.812 40.6898C164.75 40.6587 164.718 40.6587 164.656 40.6587C164.687 40.7209 164.75 40.7209 164.812 40.6898Z" fill="black"/>
<path d="M165.993 40.6898C166.024 40.6898 166.149 40.8453 166.118 40.6587C166.118 40.6898 166.055 40.7209 165.993 40.6898Z" fill="black"/>
<path d="M165.993 40.6898C166.055 40.6898 166.118 40.6898 166.118 40.6587C166.086 40.6587 166.024 40.6587 165.993 40.6898Z" fill="black"/>
<path d="M137.569 40.6587H137.444C137.6 40.6898 137.569 40.6587 137.569 40.6587Z" fill="black"/>
<path d="M112.316 34.5942C112.192 34.5942 112.223 34.6875 112.316 34.7186C112.254 34.6564 112.254 34.6253 112.316 34.5942Z" fill="black"/>
<path d="M112.316 34.7494C112.316 34.7183 112.316 34.6561 112.316 34.625C112.254 34.6561 112.254 34.7183 112.316 34.7494Z" fill="black"/>
<path d="M112.316 31.9194C112.254 31.9505 112.254 32.0127 112.316 32.0438C112.316 32.0127 112.316 31.9505 112.316 31.9194Z" fill="black"/>
<path d="M112.316 29.4629C112.254 29.494 112.254 29.5562 112.316 29.5873C112.316 29.5562 112.316 29.494 112.316 29.4629Z" fill="black"/>
<path d="M110.201 40.3164C110.201 40.3164 110.232 40.3786 110.201 40.4097C110.263 40.4097 110.263 40.3164 110.201 40.3164Z" fill="black"/>
<path d="M110.201 40.3164V40.4097C110.232 40.4097 110.201 40.3475 110.201 40.3164Z" fill="black"/>
<path d="M123.855 29.1834H123.823C123.823 29.1519 123.823 29.1834 123.855 29.1834Z" fill="black"/>
<path d="M123.668 29.1522H123.637C123.637 29.1207 123.637 29.1522 123.668 29.1522Z" fill="black"/>
<path d="M105.568 35.3091L105.693 35.4335C105.662 35.4335 105.631 35.3402 105.568 35.3091Z" fill="black"/>
<path d="M135.174 40.5032H135.143C135.143 40.4718 135.143 40.5032 135.174 40.5032Z" fill="black"/>
<path d="M118.94 27.7524H118.972C118.972 27.7839 118.972 27.7524 118.94 27.7524Z" fill="black"/>
<path d="M102.987 33.0702C102.987 33.0391 102.955 32.9458 102.955 32.9458C103.329 32.4794 104.013 32.044 104.51 31.733C104.604 31.4842 104.79 31.2976 104.977 31.1421C106.159 30.1158 107.309 29.0584 108.429 27.9389C108.46 27.9078 108.491 27.8767 108.522 27.8767C107.994 27.8767 107.434 27.8767 106.905 27.8767L106.843 27.7834L106.656 28.0633C105.039 29.6804 103.391 31.2665 101.618 32.6348C101.307 32.8836 101.121 32.8836 101.276 32.6037H101.183V18.7646C100.903 18.7646 100.032 18.7957 99.9388 18.7646H99.9077C99.9077 18.7957 99.9078 18.7957 99.8145 18.7646H99.9077V40.2852C100.188 40.2541 101.058 40.2852 101.245 40.2852V34.5941L101.338 34.5319C101.338 34.5319 101.338 34.5008 101.307 34.4697C101.276 34.4075 101.991 33.7233 102.085 33.7855C102.147 33.8477 102.209 33.8788 102.302 33.941C104.324 35.5582 106.345 37.8906 108.056 39.9431C108.118 40.0053 108.149 40.0675 108.18 40.1297C108.211 40.1919 108.242 40.2852 108.305 40.3474V40.2541H110.046L110.233 40.3474C110.108 40.2852 110.015 40.1919 109.922 40.0986C108.273 38.1083 106.532 36.2423 104.697 34.5319L104.635 34.3764L104.573 34.4697C104.479 34.4697 103.111 33.1324 103.08 33.0391L102.987 33.0702Z" fill="black"/>
<path d="M107.994 39.9429C106.283 37.8903 104.262 35.5579 102.24 33.9407C102.178 33.8785 102.116 33.8474 102.023 33.7852C101.96 33.723 101.214 34.4072 101.245 34.4694C101.245 34.4694 101.245 34.5005 101.276 34.5316C101.276 34.4694 101.929 33.8785 101.991 33.8785C104.262 35.7756 106.283 38.0458 108.211 40.3783C108.18 40.3161 108.149 40.2228 108.087 40.1606C108.056 40.0984 107.994 40.0051 107.962 39.974L107.994 39.9429Z" fill="black"/>
<path d="M99.8768 18.7647C99.8768 18.7647 99.8768 18.7647 99.9079 18.7647C100.001 18.7958 100.872 18.7647 101.152 18.7647C101.152 18.7336 101.245 18.6714 101.245 18.6714H99.8457V18.7336L99.8768 18.7647Z" fill="black"/>
<path d="M101.214 40.2853C100.996 40.2853 100.125 40.2542 99.8765 40.2853L99.7832 40.3786H101.276H101.183V40.2853H101.214Z" fill="black"/>
<path d="M99.8765 40.2856C99.8454 40.2856 99.8143 40.2856 99.7832 40.2856C99.7832 40.2856 99.7832 40.3167 99.7832 40.3478L99.8765 40.2856Z" fill="black"/>
<path d="M108.522 27.9077C108.584 27.8766 108.615 27.8456 108.677 27.8145H106.812L106.874 27.9077H108.491H108.522Z" fill="black"/>
<path d="M101.214 40.2856V40.3478H101.307C101.307 40.3789 101.245 40.2856 101.245 40.2856C101.245 40.2856 101.245 40.2856 101.214 40.2856Z" fill="black"/>
<path d="M101.214 40.2851C101.214 40.2851 101.214 40.2851 101.245 40.2851L101.307 40.3784V34.5317L101.214 34.5939V40.2851Z" fill="black"/>
<path d="M101.619 32.6659C103.391 31.2664 105.039 29.6804 106.657 28.0943L106.843 27.8145C105.071 29.5871 103.205 31.2353 101.308 32.8214L101.245 32.6659C101.121 32.9458 101.308 32.9458 101.587 32.697L101.619 32.6659Z" fill="black"/>
<path d="M108.429 27.9701C107.31 29.0586 106.159 30.147 104.977 31.1733C104.76 31.3288 104.604 31.5154 104.511 31.7642C105.879 30.3958 107.403 29.3074 108.709 27.8457L108.554 27.9079C108.523 27.9079 108.491 27.939 108.46 27.9701H108.429Z" fill="black"/>
<path d="M108.708 27.8145C108.646 27.8145 108.615 27.8766 108.553 27.8766L108.708 27.8145Z" fill="black"/>
<path d="M99.8766 18.7648C99.8766 18.7648 99.8766 18.7337 99.8766 18.7026L99.8145 18.7648C99.8767 18.7959 99.9077 18.7959 99.9077 18.7648H99.8766Z" fill="black"/>
<path d="M101.182 18.7959C101.182 18.7959 101.214 18.7959 101.245 18.7959C101.245 18.7959 101.245 18.7337 101.245 18.7026L101.151 18.7648L101.182 18.7959Z" fill="black"/>
<path d="M101.214 18.7959C101.214 18.7959 101.182 18.7959 101.151 18.7959V32.6039H101.245C101.245 32.635 101.245 18.7026 101.245 18.7026C101.245 18.7337 101.245 18.7959 101.245 18.7959H101.214Z" fill="black"/>
<path d="M99.8765 40.2854V18.7959H99.7832C99.7832 18.7648 99.7832 40.3476 99.7832 40.3476C99.7832 40.3476 99.7832 40.3165 99.7832 40.2854C99.7832 40.2854 99.8143 40.2854 99.8765 40.2854Z" fill="black"/>
<path d="M108.273 40.2856V40.3789H110.17L109.984 40.2856H108.273Z" fill="black"/>
<path d="M109.829 40.1299C109.922 40.2232 110.046 40.3165 110.14 40.3787C108.896 38.9793 107.683 37.4554 106.346 36.1493C105.755 35.5584 105.102 34.9986 104.511 34.4077L104.573 34.5632C106.408 36.2737 108.149 38.1396 109.798 40.1299H109.829Z" fill="black"/>
<path d="M103.017 32.9458C103.515 32.5415 104.044 32.1372 104.51 31.7329C104.012 32.0439 103.328 32.4482 102.955 32.9458C102.955 32.9458 102.955 33.0391 102.986 33.0702C103.017 33.1635 104.386 34.5318 104.479 34.5007L104.541 34.4074C104.541 34.4074 104.448 34.4074 104.448 34.3763L103.017 32.9769V32.9458Z" fill="black"/>
<path d="M150.91 40.2232C150.91 40.161 150.785 39.1036 150.785 38.9792C149.666 39.3213 148.328 39.4457 147.769 38.0151C147.706 37.8907 147.582 37.4864 147.706 37.4242H147.613V29.2452L147.706 29.183V29.0897H150.754C150.754 28.872 150.754 28.0945 150.754 27.8768H147.769L147.706 27.7835H147.613C147.613 25.7932 147.613 23.8028 147.582 21.8125C147.364 21.8436 146.525 21.8125 146.307 21.8125C146.307 23.7717 146.307 25.7621 146.276 27.7213L146.182 27.7835C146.182 27.7835 146.182 27.8146 146.182 27.8457C146.182 27.939 144.69 27.9079 144.441 27.8768C144.441 28.1256 144.441 28.9653 144.441 29.0275L144.348 29.0897C144.41 29.0586 144.441 29.0586 144.441 29.0897C144.876 29.0586 145.747 29.0275 146.182 29.0897L146.245 29.183L146.307 29.4318C146.276 31.8886 146.245 34.3765 146.307 36.8334C146.307 37.984 146.587 39.2902 147.489 39.9433L147.551 40.0988C147.706 40.0988 147.893 40.1299 148.08 40.2543C148.359 40.5653 150.847 40.4409 150.941 40.2543L150.91 40.2232Z" fill="black"/>
<path d="M150.755 27.9079L150.848 27.8457H147.707L147.769 27.939H150.755V27.9079Z" fill="black"/>
<path d="M147.583 21.8433C147.583 21.8433 147.583 21.8433 147.614 21.8433C147.614 21.8433 147.645 21.7811 147.676 21.75L147.583 21.8122C147.583 21.8122 147.583 21.8122 147.583 21.8433Z" fill="black"/>
<path d="M147.583 21.8436C147.583 23.834 147.583 25.7932 147.614 27.7525H147.707C147.707 27.7836 147.676 21.7192 147.676 21.7192C147.676 21.7503 147.676 21.8125 147.614 21.8125C147.614 21.8125 147.614 21.8125 147.583 21.8125V21.8436Z" fill="black"/>
<path d="M146.307 21.8433C146.525 21.8433 147.365 21.8744 147.582 21.8433C147.582 21.8433 147.582 21.8433 147.582 21.8122L147.676 21.75H146.245H146.338C146.338 21.8122 146.338 21.8122 146.338 21.8433H146.307Z" fill="black"/>
<path d="M147.614 37.424H147.708C147.708 37.4551 147.708 29.2139 147.708 29.2139L147.614 29.2761V37.424Z" fill="black"/>
<path d="M150.755 29.0898C150.755 29.0898 150.755 29.1209 150.755 29.152C150.755 29.152 150.817 29.1831 150.848 29.1831L150.786 29.0898H150.755Z" fill="black"/>
<path d="M146.307 21.8435C146.307 21.8435 146.307 21.8123 146.307 21.7812H146.214C146.214 21.7501 146.276 21.8435 146.276 21.8435H146.307Z" fill="black"/>
<path d="M150.755 27.9077H150.786V27.8145C150.817 27.8145 150.755 27.8766 150.755 27.8766V27.9077Z" fill="black"/>
<path d="M150.755 27.9077C150.755 28.1254 150.755 28.9029 150.755 29.1206H150.786L150.848 29.2139V27.8145V27.9077H150.755Z" fill="black"/>
<path d="M150.754 29.0898H147.738V29.1831C147.706 29.1831 150.816 29.1831 150.816 29.1831C150.785 29.1831 150.754 29.1831 150.723 29.152C150.723 29.152 150.723 29.152 150.723 29.0898H150.754Z" fill="black"/>
<path d="M144.442 29.0896C144.442 29.0896 144.442 29.1207 144.442 29.1829H146.246L146.184 29.0896C145.78 29.0274 144.878 29.0585 144.442 29.0896Z" fill="black"/>
<path d="M144.441 29.1209C144.441 29.1209 144.441 29.1209 144.348 29.1209L144.41 29.1831C144.41 29.1831 144.41 29.1209 144.41 29.0898L144.441 29.1209Z" fill="black"/>
<path d="M146.276 36.8642C146.214 34.4074 146.276 31.9195 146.276 29.4627L146.214 29.2139C146.152 29.9602 146.183 30.7377 146.183 31.5152C146.183 33.1945 146.121 34.9361 146.183 36.6465C146.214 37.9838 146.401 39.4144 147.52 40.1296L147.458 39.9741C146.556 39.3211 146.276 38.0149 146.276 36.8642Z" fill="black"/>
<path d="M144.441 27.9077C144.441 27.9077 144.441 27.9077 144.41 27.9077L144.348 27.8145V29.1206L144.441 29.0584C144.441 28.9962 144.441 28.1565 144.441 27.9077Z" fill="black"/>
<path d="M144.441 27.9077C144.69 27.9388 146.151 27.9699 146.182 27.8766C146.182 27.8766 146.182 27.8456 146.182 27.8145H144.348C144.379 27.8145 144.441 27.8144 144.441 27.8455C144.441 27.8455 144.441 27.8766 144.441 27.9077Z" fill="black"/>
<path d="M144.441 27.9077V27.8455C144.441 27.8455 144.379 27.8145 144.348 27.8145L144.41 27.9077C144.41 27.9077 144.41 27.9077 144.441 27.9077Z" fill="black"/>
<path d="M146.307 21.8433L146.245 21.75V27.8143C146.214 27.8143 146.276 27.7521 146.276 27.7521C146.276 25.7929 146.276 23.8025 146.307 21.8433Z" fill="black"/>
<path d="M150.102 40.5028C150.257 40.5028 150.786 40.3784 150.91 40.3162C150.941 40.3162 150.972 40.2851 150.972 40.2229L150.848 38.8545C149.822 39.1966 148.267 39.3832 147.8 37.9838C147.8 37.8905 147.676 37.4862 147.676 37.4551C147.551 37.5173 147.676 37.8905 147.738 38.046C148.298 39.4765 149.635 39.321 150.755 39.01C150.755 39.1344 150.91 40.1918 150.879 40.254C150.786 40.4717 148.298 40.5961 148.018 40.254C147.831 40.1607 147.676 40.0985 147.489 40.0985C148.205 40.565 149.262 40.6272 150.07 40.5028H150.102Z" fill="black"/>
<path d="M112.409 27.8145V40.3785H113.809V27.8145H112.409Z" fill="black"/>
<path d="M155.512 27.8766L155.45 27.8145H154.051V40.3785H155.512V27.8766Z" fill="black"/>
<path d="M74.2506 34.7805V34.6872H72.3225L72.2603 34.5939C72.167 34.6872 72.0426 34.7183 71.9182 34.7183C71.234 34.9671 70.612 35.3714 70.0522 35.9934C68.3729 37.766 64.4855 36.6464 64.33 33.8786C64.1745 31.0486 68.2796 29.7424 69.99 31.4529C70.7675 32.1993 71.2962 32.6658 72.3536 32.7591C72.9755 32.7591 73.5664 32.7591 74.1884 32.8213V18.8267H70.3943V27.8143L70.301 27.8765H70.2077C68.1552 27.2545 66.1027 27.3167 64.1434 28.4985C61.8421 29.8668 60.1938 32.1993 61.0024 35.247C62.1842 39.6009 66.4136 41.6845 70.1144 40.2539H70.3321L70.3943 40.1295C72.3847 39.2277 74.0329 37.2684 74.2195 34.7494L74.2506 34.7805Z" fill="black"/>
<path d="M70.3951 18.8272H70.364L70.3018 18.7339V27.877L70.3951 27.8148V18.8272Z" fill="black"/>
<path d="M61.0334 35.2472C60.2249 32.1995 61.8731 29.8982 64.1745 28.4987C66.1026 27.317 68.1551 27.2548 70.2388 27.9389H70.3321C69.8034 27.7523 69.3058 27.5658 68.746 27.5036C66.849 27.2548 65.1696 27.659 63.5836 28.8097C61.1889 30.5824 60.0072 32.9459 61.2822 36.1491C62.7439 39.881 66.538 41.5914 69.9278 40.4719C70.0833 40.4097 70.2388 40.3786 70.3943 40.2853H70.1766C66.4758 41.6847 62.2463 39.6011 61.0645 35.2472H61.0334Z" fill="black"/>
<path d="M70.3951 18.8268V18.7646H70.3018C70.3018 18.7335 70.364 18.8268 70.364 18.8268H70.3951Z" fill="black"/>
<path d="M74.1571 18.8272V32.8218L74.2193 32.884V18.7339V18.8272H74.126H74.1571Z" fill="black"/>
<path d="M74.1582 18.8272H74.2204V18.7339L74.1582 18.7961V18.8272Z" fill="black"/>
<path d="M70.3952 18.8272H74.1893C74.1893 18.7961 74.2826 18.7339 74.2826 18.7339H70.333H70.4263V18.8272H70.3952Z" fill="black"/>
<path d="M74.2823 34.6875L74.3445 34.5942H72.292L72.3542 34.6875H74.3134H74.2823Z" fill="black"/>
<path d="M74.3448 34.5942V34.6875H74.2826V34.7808C74.0649 37.2999 72.4167 39.2591 70.3952 40.161L70.333 40.2854C70.644 40.161 71.0172 39.9433 71.2971 39.7567C72.9764 38.6993 74.2204 36.8334 74.3137 34.5942H74.3448Z" fill="black"/>
<path d="M74.1582 32.8218L74.2515 32.884L74.1893 32.8218H74.1582Z" fill="black"/>
<path d="M74.1581 32.8214C73.5672 32.8214 72.9452 32.7903 72.3232 32.7592C71.297 32.6348 70.7372 32.1684 69.9597 31.4531C68.2492 29.7426 64.1753 31.0488 64.2997 33.8788C64.4241 36.6466 68.3425 37.7662 70.0219 35.9935C70.5817 35.4027 71.2037 34.9673 71.8878 34.7185C72.0433 34.7185 72.1677 34.6874 72.2299 34.5941C70.8616 34.5941 70.1463 36.1179 68.9334 36.5533C67.6895 36.9887 66.2589 36.7399 65.2948 35.7758C62.5892 33.1013 66.29 29.6493 69.3066 31.1421C70.1774 31.5775 70.6439 32.4483 71.5768 32.7281C72.4476 32.9769 73.3495 32.8525 74.2203 32.8836H74.127V32.8214H74.1581Z" fill="black"/>
<path d="M81.0306 27.8145H77.0811V32.8836H81.0306V27.8145Z" fill="black"/>
<path d="M58.2971 35.4031V27.9082H54.4719V34.8433L54.3786 34.9055C54.3786 34.9055 54.4097 34.9055 54.4408 34.9055C54.5341 34.9988 54.1609 35.8385 54.0676 35.9629C53.1035 37.2068 51.1132 37.1135 50.3357 35.683C50.2424 35.5275 50.0247 35.0921 50.1802 34.9988H50.0869V27.9082H46.2617V35.0921C46.355 40.3478 51.4242 41.5296 55.0939 40.2234H55.2805L55.4049 40.0991C57.0842 39.3216 58.2038 37.4556 58.2971 35.4031Z" fill="black"/>
<path d="M55.6536 40.0679C55.5292 40.1301 55.4359 40.1923 55.3115 40.2234C55.4359 40.1612 55.5603 40.1301 55.6536 40.0679Z" fill="black"/>
<path d="M50.0869 27.9077H50.1491V27.8145L50.0869 27.8766V27.9077Z" fill="black"/>
<path d="M50.3357 35.6828C51.1131 37.1133 53.1035 37.2066 54.0676 35.9626C54.1609 35.8382 54.534 34.9986 54.4407 34.9053C54.4407 34.9053 54.4096 34.9053 54.3785 34.9053C54.3785 35.1541 54.0987 35.776 53.9743 35.9626C53.2279 37.02 51.2375 36.9889 50.5223 35.9004C50.429 35.745 50.1491 35.1541 50.1491 34.9986C50.0247 35.0919 50.2424 35.5584 50.3046 35.6828H50.3357Z" fill="black"/>
<path d="M50.0869 27.9077V34.9672H50.1802C50.1802 34.9983 50.1802 27.8145 50.1802 27.8145V27.9077H50.0869Z" fill="black"/>
<path d="M46.2614 27.9077H50.0866C50.0866 27.8766 50.1799 27.8145 50.1799 27.8145H46.1992H46.2925C46.2925 27.8456 46.2925 27.9077 46.2925 27.9077H46.2614Z" fill="black"/>
<path d="M46.2613 27.9077V27.8455L46.168 27.8145L46.2302 27.9077H46.2613Z" fill="black"/>
<path d="M58.2969 27.9077H58.3591V27.8145L58.2969 27.8766V27.9077Z" fill="black"/>
<path d="M54.4712 27.9079V27.8457H54.3779C54.3779 27.8146 54.4401 27.9079 54.4401 27.9079H54.4712Z" fill="black"/>
<path d="M54.4712 27.9077H54.4401L54.3779 27.8145V34.905L54.4712 34.8428V27.9077Z" fill="black"/>
<path d="M54.4714 27.9077H58.2966C58.2966 27.8766 58.3899 27.8145 58.3899 27.8145H54.4092H54.5025V27.9077H54.4714Z" fill="black"/>
<path d="M46.2614 35.0916V27.9077L46.1992 27.8145V35.0916C46.3236 37.6729 47.4432 39.5077 49.589 40.3474C51.2373 40.9694 53.6941 40.9694 55.3113 40.2541H55.1247C51.455 41.5603 46.3858 40.3785 46.2925 35.0916H46.2614Z" fill="black"/>
<path d="M58.3903 35.4025V27.7832V27.8765H58.3281V35.3714C58.2037 37.4239 57.0842 39.2588 55.4359 40.0673L55.3115 40.2228C55.4359 40.1606 55.5603 40.0984 55.6536 40.0673C57.2397 39.1966 58.297 37.4239 58.3903 35.4025Z" fill="black"/>
<path d="M77.0811 40.3787H81.0306V34.5942H77.1122L77.0811 40.3787Z" fill="black"/>
<path d="M125.253 29.8048C125.471 30.0536 125.626 30.3335 125.751 30.6134C125.875 30.9244 126.062 31.4842 125.906 31.733H126V40.223L125.906 40.2852C125.968 40.2541 125.968 40.2541 126 40.2852C126.155 40.2852 127.15 40.2852 127.337 40.2852V32.1684C127.337 27.9389 122.952 26.4772 120.215 28.7164H120.06L119.997 28.934C119.873 29.0895 119.407 29.7115 119.282 29.7115C119.282 29.7115 119.22 29.6493 119.189 29.6182C119.158 29.0584 119.064 28.4365 118.878 27.9078V27.8145C118.878 27.8456 118.878 27.9078 118.878 27.9078C118.691 27.9389 117.945 27.9078 117.727 27.9078L117.665 27.8145L117.758 27.97C117.945 28.9341 118.038 29.9292 118.1 30.9244V40.2852C118.349 40.2541 119.251 40.2852 119.438 40.2852V32.0129L119.531 31.9507L119.438 31.8885C119.842 29.3072 122.361 28.3743 124.382 29.2139L124.445 29.3383C124.693 29.245 125.098 29.6182 125.284 29.8359L125.253 29.8048Z" fill="black"/>
<path d="M118.879 27.8145V27.9077C119.066 28.4364 119.159 29.0273 119.19 29.6182C119.19 29.6493 119.252 29.7115 119.283 29.7115C119.408 29.7115 119.874 29.0895 119.998 28.934L120.061 28.7474C119.781 29.0273 119.563 29.3694 119.283 29.6804C119.314 29.4316 119.066 27.8455 118.91 27.8455L118.879 27.8145Z" fill="black"/>
<path d="M117.976 40.3786C117.976 40.3786 117.976 40.3475 117.976 40.3164C117.976 40.3164 118.007 40.3164 118.069 40.3164V30.9556C118.038 29.9604 117.914 28.9653 117.758 28.0012L117.665 27.8457C117.821 28.872 117.914 29.9293 118.007 30.9556V40.4097L117.976 40.3786Z" fill="black"/>
<path d="M119.407 31.8573L119.501 31.9195C119.501 31.2664 120.154 30.1469 120.589 29.7426C121.522 28.9029 123.357 28.7163 124.414 29.3072L124.352 29.1828C122.331 28.3431 119.843 29.2761 119.407 31.8573Z" fill="black"/>
<path d="M119.469 40.3789L119.407 40.2856C119.407 40.2856 119.407 40.2856 119.376 40.2856V40.3478H119.469V40.3789Z" fill="black"/>
<path d="M119.469 40.3785V31.9507L119.376 32.0129V40.2852C119.376 40.2852 119.376 40.2852 119.407 40.2852L119.469 40.3785Z" fill="black"/>
<path d="M117.976 40.3786L118.069 40.3164C118.038 40.3164 118.007 40.3164 117.976 40.3164C117.976 40.3164 117.976 40.3475 117.976 40.3786Z" fill="black"/>
<path d="M117.976 40.3786H119.469H119.376V40.2853C119.158 40.2853 118.287 40.2542 118.039 40.2853C118.039 40.3164 117.945 40.3786 117.945 40.3786H117.976Z" fill="black"/>
<path d="M117.696 27.9077C117.914 27.9077 118.66 27.9388 118.847 27.9077C118.847 27.9077 118.878 27.8456 118.878 27.8145H117.634L117.696 27.9077Z" fill="black"/>
<path d="M127.338 32.1684V40.2853C127.338 40.2853 127.338 40.2853 127.369 40.2853L127.431 40.3786V32.1684C127.431 27.7524 122.891 26.3218 120.061 28.7164H120.216C122.922 26.4773 127.369 27.9079 127.338 32.1684Z" fill="black"/>
<path d="M127.337 40.2856V40.3478H127.43C127.43 40.3789 127.368 40.2856 127.368 40.2856C127.368 40.2856 127.368 40.2856 127.337 40.2856Z" fill="black"/>
<path d="M125.968 40.2855C125.968 40.2855 125.968 40.2855 125.875 40.2855L125.937 40.3477C125.937 40.3477 125.937 40.2855 125.937 40.2544L125.968 40.2855Z" fill="black"/>
<path d="M127.337 40.2856C127.151 40.2856 126.155 40.2856 126 40.2856C126 40.2856 126 40.3167 126 40.3789H127.431H127.337V40.2856Z" fill="black"/>
<path d="M125.907 31.7641C126.062 31.4843 125.907 30.9245 125.751 30.6446C125.627 30.3336 125.44 30.0537 125.254 29.836C125.067 29.6183 124.663 29.2451 124.414 29.3384C125.285 29.6494 125.907 30.7379 125.907 31.7641Z" fill="black"/>
<path d="M125.968 31.795H125.875C125.875 31.7639 125.875 40.3162 125.875 40.3162L125.968 40.254V31.795Z" fill="black"/>
<path d="M142.016 37.7662C142.11 37.6418 142.638 36.8021 142.607 36.7399C142.576 36.6777 141.519 36.1801 141.456 36.2423C139.186 40.845 133.06 40.0986 131.66 35.0295C131.598 34.8118 131.443 34.2831 131.505 34.0965C131.505 34.0654 131.505 34.0343 131.536 34.0032V33.9099H142.98L143.042 34.0032V33.9099C143.198 32.1994 142.421 30.6756 141.301 29.556C138.564 26.8193 134.646 27.037 131.909 29.6804C128.364 33.1013 130.883 38.8236 134.739 40.1919L134.863 40.3163L135.019 40.2541C137.6 40.9383 140.337 40.1608 142.016 37.704V37.7662ZM136.014 28.9651C137.88 28.7474 140.244 29.4316 141.208 31.422C141.425 31.8263 141.612 32.3549 141.612 32.8525H131.66C132.096 30.489 134.055 29.2139 136.045 28.9651H136.014Z" fill="black"/>
<path d="M131.598 33.9409V34.0342C131.566 34.0342 143.042 34.0342 143.042 34.0342L142.98 33.9409H131.566H131.598Z" fill="black"/>
<path d="M131.908 29.7427C134.645 27.0993 138.564 26.8816 141.3 29.6183C142.42 30.7379 143.166 32.2617 142.98 33.9722V34.0655C143.104 34.0655 143.073 33.3813 143.073 33.2569C142.98 31.2665 141.736 29.7116 140.305 28.7164C137.537 26.7883 134.023 27.4414 131.66 29.836C128.208 33.3813 130.913 39.1657 134.801 40.4097L134.676 40.2853C130.82 38.948 128.301 33.1947 131.846 29.7738L131.908 29.7427Z" fill="black"/>
<path d="M137.662 40.5962C139.839 40.3163 141.705 38.8858 142.7 36.7089L141.425 36.1491C140.959 37.0509 140.399 37.8284 139.622 38.3882C137.756 39.6633 135.019 39.4767 133.371 37.8595C132.438 36.9266 131.691 35.496 131.567 34.0654C131.567 34.0654 131.536 34.1276 131.536 34.1587C131.474 34.3142 131.629 34.874 131.691 35.0917C133.091 40.1298 139.217 40.9072 141.488 36.3046C141.519 36.2424 142.576 36.74 142.638 36.8022C142.669 36.8333 142.141 37.6729 142.047 37.8284C140.368 40.2853 137.631 41.0627 135.05 40.3786L134.895 40.4407C135.734 40.6895 136.854 40.7828 137.725 40.6584L137.662 40.5962Z" fill="black"/>
<path d="M95.6467 37.9218C97.8548 34.9362 97.7615 31.5464 94.8693 29.214C91.635 26.6017 87.561 27.006 84.6999 30.1159C84.2645 30.5824 83.3315 32.0751 83.4559 32.7593C83.4559 32.8526 85.1042 32.8215 85.2596 32.7904C86.5969 32.7282 87.25 32.1684 88.2452 31.2665C90.1111 29.7738 94.1229 31.2665 93.532 34.2521C93.1899 36.0558 91.4795 36.8955 89.9867 36.8333C88.7739 36.7711 88.0586 36.1491 87.1567 35.3094C86.7524 34.9673 86.2859 34.6874 85.7883 34.6874L85.695 34.5941V34.6874H83.4248L83.487 34.7496C84.0157 37.3931 85.8505 39.5078 88.0897 40.3475L88.1519 40.4719H88.3696C91.013 41.1872 93.9363 40.3164 95.7089 37.9218H95.6467Z" fill="black"/>
<path d="M83.4252 34.7805L83.363 34.7183L83.3008 34.625C83.674 36.9263 85.1667 39.01 87.0327 40.0051C87.3126 40.1606 87.7479 40.3783 88.0589 40.4716L87.9967 40.3472C85.7576 39.5076 83.9228 37.4239 83.3941 34.7494L83.4252 34.7805Z" fill="black"/>
<path d="M95.7718 37.8907C98.1665 34.5631 97.6689 31.08 94.4968 28.8098C91.418 26.6018 87.6239 27.0061 84.9182 29.7428C84.1408 30.5202 83.4255 31.6709 83.3633 32.8527C84.5761 32.7905 85.9445 33.1015 87.033 32.3551C87.9971 31.702 88.2769 31.0178 89.552 30.769C91.418 30.427 94.0614 31.8575 93.4083 34.3765C92.9107 36.398 90.4539 37.1444 88.8678 36.4602C87.7172 35.9626 87.033 34.532 85.6646 34.532L85.7579 34.6253C86.2555 34.6253 86.722 34.9363 87.1263 35.2473C88.0281 36.087 88.7434 36.709 89.9563 36.7712C91.449 36.8334 93.1595 35.9937 93.5016 34.1899C94.0925 31.1733 90.0807 29.7117 88.2147 31.2044C87.2196 32.1063 86.5976 32.6661 85.2292 32.7283C85.0426 32.7283 83.4255 32.7905 83.4255 32.6972C83.3322 31.9819 84.2341 30.5202 84.6694 30.0538C87.4995 26.9439 91.6045 26.5396 94.8389 29.1519C97.7 31.4843 97.8244 34.8741 95.6163 37.8596C93.8437 40.2543 90.8893 41.125 88.2769 40.3787H88.0592C90.796 41.3116 93.937 40.3787 95.7407 37.8285L95.7718 37.8907Z" fill="black"/>
<path d="M85.6334 34.6875V34.5942C85.6645 34.5942 83.332 34.5942 83.332 34.5942L83.3942 34.6875H85.6334Z" fill="black"/>
<path d="M169.414 39.0413C169.632 38.8547 170.876 37.3619 170.845 37.2064C170.845 37.1442 169.756 36.6155 169.725 36.6466C167.144 41.5914 159.898 39.0724 159.898 33.4434C159.898 28.1877 166.491 27.5657 169.01 30.8933C169.041 30.9244 170.129 30.4579 170.129 30.3957C170.129 30.3335 169.321 29.5871 169.196 29.4627C166.553 27.2236 162.852 26.8815 160.24 29.4627C158.187 31.4842 158.187 34.3764 159.524 36.9265C161.079 39.8498 164.252 41.156 167.144 40.3474H167.33C167.33 40.3785 167.424 40.2541 167.424 40.2541C168.17 40.0053 168.792 39.5699 169.414 39.0413Z" fill="black"/>
<path d="M170.938 37.1442L169.694 36.5533C169.352 37.2375 168.823 37.8906 168.263 38.326C165.153 40.6895 160.333 38.2016 160.022 33.941C159.618 28.4053 166.397 27.5968 169.01 30.9866C169.134 31.0488 170.129 30.5512 170.316 30.4579C167.89 27.5968 163.847 26.5394 160.83 28.8718C158.28 30.8622 157.938 34.0032 159.524 36.9576C161.11 39.9431 164.438 41.3115 167.392 40.3785H167.206C164.314 41.156 161.141 39.8498 159.586 36.9265C158.218 34.4075 158.249 31.5153 160.302 29.4627C162.883 26.9126 166.584 27.2547 169.258 29.4627C169.414 29.5871 170.222 30.3335 170.191 30.3957C170.191 30.4579 169.103 30.9244 169.072 30.8933C166.553 27.5657 159.96 28.1877 159.96 33.4434C159.96 39.0723 167.206 41.5914 169.787 36.6466C169.849 36.6466 170.907 37.1442 170.907 37.2064C170.938 37.3308 169.725 38.8546 169.476 39.0412C168.854 39.5388 168.232 40.0053 167.486 40.2541L167.392 40.3785C168.139 40.1297 169.041 39.601 169.6 39.0412C169.787 38.8546 171.093 37.3308 170.969 37.1442H170.938Z" fill="black"/>
<path d="M79.6004 21.8126C78.0765 21.0662 76.957 23.492 78.2631 24.5493V24.6737H78.3875C80.0358 25.7 81.373 22.7145 79.6004 21.8437V21.8126Z" fill="black"/>
<path d="M78.2631 24.6739C78.2009 24.6428 78.1698 24.6117 78.1387 24.5806C78.1698 24.6117 78.232 24.6428 78.2631 24.6739Z" fill="black"/>
<path d="M79.7251 21.7503C78.0769 20.8174 76.864 23.4297 78.1391 24.5493C78.1702 24.5804 78.2324 24.6115 78.2635 24.6426V24.5182C76.9262 23.4608 78.0769 21.0351 79.6008 21.7814C81.3734 22.6522 80.0361 25.6377 78.3879 24.6115H78.2635C80.005 25.8554 81.4667 22.7455 79.694 21.7503H79.7251Z" fill="black"/>
<path d="M113.622 21.9679C112.191 21.2215 111.227 23.5539 112.533 24.4247V24.5491C112.564 24.5491 112.658 24.4869 112.658 24.4869C114.119 25.0778 115.021 22.6832 113.622 21.9368V21.9679Z" fill="black"/>
<path d="M114.307 23.8028C114.773 22.4966 113.591 21.3148 112.503 21.9368C111.57 22.4655 111.663 24.1138 112.565 24.5802V24.4558C111.228 23.554 112.192 21.2526 113.622 21.999C115.022 22.7454 114.12 25.1089 112.658 24.5492L112.565 24.6113C113.187 24.9223 114.058 24.6113 114.307 23.8339V23.8028Z" fill="black"/>
<path d="M155.264 21.9678C153.865 21.2214 152.839 23.585 154.176 24.4557V24.5801C154.207 24.5801 154.3 24.5179 154.3 24.5179C155.793 25.1088 156.695 22.7142 155.264 21.9678Z" fill="black"/>
<path d="M154.207 24.58C154.145 24.5489 154.083 24.5178 154.021 24.4556C154.083 24.4867 154.145 24.5489 154.207 24.58Z" fill="black"/>
<path d="M156.041 23.5228C156.259 22.1545 154.953 21.2215 153.989 22.0612C153.305 22.6521 153.367 23.9271 154.051 24.4558C154.113 24.4869 154.176 24.5491 154.238 24.5802V24.4558C152.869 23.585 153.896 21.2215 155.295 21.9679C156.726 22.7143 155.824 25.1089 154.331 24.518L154.238 24.5802C154.953 24.9534 155.917 24.4247 156.073 23.5228H156.041Z" fill="black"/>
</svg>
