<svg width="200" height="60" viewBox="0 0 200 60" fill="none" xmlns="http://www.w3.org/2000/svg">
<g clip-path="url(#clip0_296_19)">
<path d="M98.1586 35.3874C97.2511 34.8775 96.5482 34.1482 96.0466 33.1977C95.545 32.2472 95.2959 31.1515 95.2959 29.9073C95.2959 28.6631 95.5549 27.5591 96.073 26.5905C96.5911 25.6235 97.3039 24.8677 98.2098 24.3232C99.1173 23.7786 100.14 23.5063 101.28 23.5063C103.077 23.5063 104.485 24.0641 105.503 25.1779C106.523 26.2918 107.031 27.8165 107.031 29.7505V30.6086C107.031 30.6498 106.998 30.6828 106.956 30.6828H97.888C97.8435 30.6828 97.8089 30.7208 97.8138 30.7654C97.9112 31.7802 98.2626 32.5871 98.8681 33.1828C99.4902 33.7967 100.327 34.102 101.381 34.102C102.348 34.102 103.099 33.899 103.635 33.4931C104.153 33.1003 104.549 32.5904 104.825 31.965C104.841 31.9287 104.881 31.9122 104.917 31.9254L107.006 32.7274C107.046 32.7422 107.065 32.7884 107.047 32.828C106.597 33.8132 105.914 34.6102 104.995 35.2175C104.052 35.8396 102.848 36.1498 101.381 36.1498C100.137 36.1498 99.0629 35.8957 98.1554 35.3858L98.1586 35.3874ZM103.534 26.3826C102.982 25.8298 102.213 25.5542 101.229 25.5542C100.297 25.5542 99.5149 25.843 98.8846 26.4222C98.2725 26.9849 97.8996 27.7472 97.7692 28.7076C97.7626 28.7522 97.7989 28.7918 97.8435 28.7918H104.364C104.407 28.7918 104.442 28.7555 104.439 28.7126C104.376 27.6977 104.076 26.9222 103.536 26.3826H103.534Z" fill="black"/>
<path d="M108.828 23.4453H111.194C111.236 23.4453 111.269 23.4783 111.269 23.5196V25.2638C111.269 25.3463 111.382 25.3661 111.41 25.2885C111.62 24.7308 111.945 24.2852 112.382 23.9502C112.935 23.5278 113.755 23.3149 114.844 23.3149H115.133C115.174 23.3149 115.207 23.3479 115.207 23.3892V25.5212C115.207 25.5624 115.174 25.5954 115.133 25.5954H114.067C112.996 25.5954 112.262 26.0789 111.864 26.6317C111.467 27.1845 111.269 28.1086 111.269 29.404V35.6003C111.269 35.6416 111.236 35.6746 111.194 35.6746H108.828C108.787 35.6746 108.754 35.6416 108.754 35.6003V23.5196C108.754 23.4783 108.787 23.4453 108.828 23.4453Z" fill="black"/>
<path d="M121.396 21.0756C121.474 20.8248 121.629 20.6647 121.863 20.5954C122.096 20.5261 122.515 20.4915 123.12 20.4915H125.011C125.053 20.4915 125.086 20.4585 125.086 20.4172V18.2588C125.086 18.2176 125.053 18.1846 125.011 18.1846H122.059C122.059 18.1846 122.056 18.1846 122.054 18.1846C121.226 18.2357 120.579 18.4007 120.114 18.6763C119.647 18.9535 119.315 19.3628 119.116 19.9073C118.918 20.4519 118.817 21.1994 118.817 22.1482V23.3693C118.817 23.4106 118.784 23.4436 118.743 23.4436H116.844C116.803 23.4436 116.77 23.4766 116.77 23.5179V25.5211C116.77 25.5624 116.803 25.5954 116.844 25.5954H118.743C118.784 25.5954 118.817 25.6284 118.817 25.6696V35.6019C118.817 35.6431 118.85 35.6762 118.891 35.6762H121.178C121.22 35.6762 121.253 35.6431 121.253 35.6019V25.6696C121.253 25.6284 121.286 25.5954 121.327 25.5954H123.693C123.734 25.5954 123.767 25.5624 123.767 25.5211V23.5179C123.767 23.4766 123.734 23.4436 123.693 23.4436H121.353C121.312 23.4436 121.279 23.4106 121.279 23.3693V22.3545C121.279 21.7505 121.319 21.3232 121.396 21.0723V21.0756Z" fill="black"/>
<path d="M127.192 35.0805C126.268 34.5459 125.547 33.8017 125.029 32.8528C124.511 31.9024 124.252 30.8149 124.252 29.5888C124.252 28.3628 124.514 27.244 125.042 26.2852C125.569 25.3265 126.295 24.579 127.219 24.0443C128.143 23.5097 129.2 23.2407 130.392 23.2407C131.583 23.2407 132.619 23.508 133.553 24.0443C134.485 24.5806 135.211 25.3265 135.729 26.2852C136.247 27.244 136.507 28.3446 136.507 29.5888C136.507 30.8331 136.243 31.8611 135.716 32.8281C135.19 33.7951 134.456 34.5475 133.513 35.0822C132.571 35.6185 131.514 35.8858 130.34 35.8858C129.167 35.8858 128.116 35.6185 127.192 35.0822V35.0805ZM132.982 32.6449C133.621 31.9189 133.941 30.9271 133.941 29.6648V29.5608C133.941 28.2654 133.626 27.2423 132.995 26.4899C132.365 25.739 131.497 25.3628 130.392 25.3628C129.286 25.3628 128.41 25.739 127.762 26.4899C127.113 27.2407 126.79 28.2654 126.79 29.5608V29.6648C126.79 30.9255 127.105 31.9189 127.735 32.6449C128.365 33.371 129.233 33.7324 130.339 33.7324C131.444 33.7324 132.342 33.3693 132.982 32.6449Z" fill="black"/>
<path d="M147.44 35.0807C146.532 34.5461 145.834 33.7986 145.341 32.8398C144.849 31.8811 144.604 30.7804 144.604 29.5362C144.604 28.292 144.858 27.2425 145.367 26.2838C145.877 25.325 146.593 24.5775 147.517 24.0429C148.441 23.5082 149.491 23.2393 150.666 23.2393C152.047 23.2393 153.2 23.5891 154.124 24.2888C155.03 24.9736 155.682 25.9042 156.083 27.0792C156.096 27.1188 156.074 27.1617 156.035 27.1749L153.769 27.9059C153.73 27.9191 153.688 27.896 153.677 27.8547C153.451 27.061 153.099 26.4521 152.623 26.0247C152.131 25.5841 151.461 25.3647 150.614 25.3647C149.56 25.3647 148.719 25.7442 148.088 26.5049C147.458 27.2656 147.143 28.2673 147.143 29.5098V29.6138C147.143 30.858 147.445 31.8596 148.05 32.6187C148.654 33.3794 149.484 33.759 150.537 33.759C151.487 33.759 152.212 33.5345 152.713 33.0857C153.2 32.6484 153.565 31.9999 153.807 31.1385C153.819 31.0989 153.86 31.0742 153.9 31.0874L156.139 31.7936C156.178 31.8068 156.2 31.8497 156.187 31.8893C155.753 33.1501 155.074 34.1269 154.152 34.8217C153.21 35.5296 152.024 35.8843 150.59 35.8843C149.398 35.8843 148.349 35.617 147.442 35.0807H147.44Z" fill="black"/>
<path d="M160.1 35.1184C159.193 34.6085 158.49 33.8791 157.988 32.9286C157.486 31.9781 157.237 30.8824 157.237 29.6382C157.237 28.394 157.496 27.2901 158.014 26.3214C158.533 25.3544 159.245 24.5987 160.151 24.0541C161.059 23.5096 162.082 23.2373 163.222 23.2373C165.019 23.2373 166.426 23.7951 167.444 24.9089C168.464 26.0228 168.972 27.5475 168.972 29.4815V30.3395C168.972 30.3808 168.939 30.4138 168.898 30.4138H159.829C159.785 30.4138 159.75 30.4518 159.755 30.4963C159.853 31.5112 160.204 32.3181 160.81 32.9138C161.432 33.5276 162.268 33.8329 163.323 33.8329C164.289 33.8329 165.04 33.6299 165.576 33.224C166.095 32.8313 166.491 32.3214 166.766 31.696C166.783 31.6597 166.822 31.6432 166.858 31.6564L168.947 32.4583C168.987 32.4732 169.007 32.5194 168.989 32.559C168.538 33.5441 167.855 34.3412 166.936 34.9484C165.994 35.5705 164.789 35.8807 163.323 35.8807C162.078 35.8807 161.004 35.6266 160.097 35.1167L160.1 35.1184ZM165.476 26.1152C164.923 25.5624 164.154 25.2868 163.171 25.2868C162.238 25.2868 161.456 25.5756 160.826 26.1548C160.214 26.7175 159.841 27.4798 159.711 28.4402C159.704 28.4848 159.74 28.5244 159.785 28.5244H166.306C166.349 28.5244 166.383 28.4881 166.38 28.4452C166.317 27.4303 166.015 26.6548 165.477 26.1152H165.476Z" fill="black"/>
<path d="M93.2882 26.4088C92.813 25.4584 92.1563 24.729 91.3197 24.2191C90.4815 23.7092 89.5361 23.4551 88.4834 23.4551C87.6369 23.4551 86.873 23.6366 86.1899 23.9996C85.5893 24.3181 85.086 24.7521 84.6801 25.2999C84.6389 25.356 84.5481 25.3247 84.5481 25.2537V23.7142L84.5184 23.7587V23.7142H82.1309C82.0896 23.7142 82.0566 23.7472 82.0566 23.7884V40.6892C82.0566 40.7305 82.0896 40.7635 82.1309 40.7635H84.4706C84.5118 40.7635 84.5448 40.7305 84.5448 40.6892V36.2767C84.5448 36.2355 84.5778 36.2025 84.6191 36.2025H88.457C89.5097 36.2025 90.4601 35.9401 91.3065 35.4121C92.153 34.8857 92.813 34.1332 93.2882 33.158C93.7634 32.1827 94.001 31.0557 94.001 29.7768V29.7504C94.001 28.4715 93.7634 27.3577 93.2882 26.4072V26.4088ZM91.3577 29.8544C91.3577 31.1679 91.0376 32.1959 90.399 32.9368C89.7605 33.6794 88.914 34.0507 87.8597 34.0507H84.6207C84.5795 34.0507 84.5465 34.0177 84.5465 33.9764V28.3808C84.5465 28.3808 84.5465 28.3676 84.5481 28.361C84.6983 27.7438 84.954 27.2075 85.3203 26.7554C85.9424 25.9864 86.7888 25.6019 87.8597 25.6019C88.9305 25.6019 89.8034 25.9567 90.4238 26.6646C91.0458 27.3725 91.356 28.3742 91.356 29.6695V29.8511L91.3577 29.8544Z" fill="black"/>
<path d="M137.952 23.4453H140.318C140.36 23.4453 140.393 23.4783 140.393 23.5196V25.2638C140.393 25.3463 140.506 25.3661 140.534 25.2885C140.744 24.7308 141.069 24.2852 141.506 23.9502C142.059 23.5278 142.879 23.3149 143.968 23.3149H144.257C144.298 23.3149 144.331 23.3479 144.331 23.3892V25.5212C144.331 25.5624 144.298 25.5954 144.257 25.5954H143.191C142.12 25.5954 141.386 26.0789 140.988 26.6317C140.591 27.1845 140.393 28.1086 140.393 29.404V35.6003C140.393 35.6416 140.36 35.6746 140.318 35.6746H137.952C137.911 35.6746 137.878 35.6416 137.878 35.6003V23.5196C137.878 23.4783 137.911 23.4453 137.952 23.4453Z" fill="black"/>
<path d="M70.0614 15.7888C68.2398 14.7377 66.0651 14.7377 64.2435 15.7888L48.9216 24.6353C47.1 25.6864 46.0127 27.5709 46.0127 29.6749C46.0127 31.4455 46.7849 33.0577 48.1131 34.1517L51.5534 32.1649L50.6822 31.6633C49.646 31.0659 49.5354 30.0758 49.5354 29.6765C49.5354 29.2772 49.6476 28.2887 50.6822 27.6897L66.0041 18.8433C67.0403 18.2459 67.9527 18.6436 68.2976 18.8433C68.6424 19.0429 69.4443 19.6353 69.4443 20.8301V38.5213C69.4443 39.7177 68.6424 40.3084 68.2976 40.5081C67.9527 40.7078 67.0386 41.1054 66.0041 40.5081L61.9302 38.1566L58.4058 40.1913L64.2419 43.5609C66.0635 44.612 68.2382 44.612 70.0598 43.5609C71.8814 42.5097 72.9687 40.6252 72.9687 38.5213V20.8284C72.9687 18.7245 71.8814 16.84 70.0598 15.7888H70.0614Z" fill="black"/>
<path d="M61.8556 25.1963L58.4153 27.1831L59.2882 27.6864C60.3244 28.2838 60.435 29.2739 60.435 29.6732C60.435 30.0725 60.3228 31.061 59.2882 31.66L43.9663 40.5064C42.9301 41.1038 42.0177 40.7061 41.6728 40.5064C41.328 40.3068 40.5261 39.7144 40.5261 38.5196V20.8284C40.5261 19.632 41.328 19.0413 41.6728 18.8416C42.0193 18.642 42.9318 18.2443 43.9663 18.8416L48.0204 21.1832L51.5431 19.1486L45.7269 15.7888C43.9053 14.7377 41.7306 14.7377 39.9089 15.7888C38.0873 16.84 37 18.7245 37 20.8284V38.5196C37 40.6236 38.0873 42.5064 39.9089 43.5592C41.7306 44.6104 43.9053 44.6104 45.7269 43.5592L61.0488 34.7128C62.8704 33.6616 63.9577 31.7788 63.9577 29.6732C63.9577 27.9026 63.1855 26.2904 61.8556 25.1963Z" fill="black"/>
</g>
<defs>
<clipPath id="clip0_296_19">
<rect width="132" height="29.3727" fill="white" transform="translate(37 15)"/>
</clipPath>
</defs>
</svg>
