<svg width="200" height="60" viewBox="0 0 200 60" fill="none" xmlns="http://www.w3.org/2000/svg">
<g clip-path="url(#clip0_287_12)">
<path d="M93.7418 5H43V55.8571H93.7418V5Z" fill="black"/>
<path d="M93.7418 5H43V55.8571H93.7418V5Z" fill="black"/>
<path d="M80.4967 31.5434C79.5827 31.5434 78.8131 32.3147 78.8131 33.2306C78.8131 34.1465 79.5346 34.8696 80.4967 34.8696C81.4104 34.8696 82.1319 34.1465 82.1319 33.2306C82.18 32.3147 81.4104 31.5434 80.4967 31.5434ZM80.4967 36.7014C78.5726 36.7014 76.9854 35.1588 76.9854 33.2306C76.9854 31.3024 78.5726 29.7598 80.4967 29.7598C82.4205 29.7598 83.9596 31.3024 83.9596 33.2306C84.0077 35.1588 82.4205 36.7014 80.4967 36.7014Z" fill="white"/>
<path d="M67.9625 45.7344H66.1348V39.4678H67.9625V45.7344Z" fill="white"/>
<path d="M70.607 45.7344H68.7793V39.4678H70.607V45.7344Z" fill="white"/>
<path d="M76.3648 18.1565L78.1443 16.3729L76.8456 15.0713L75.0662 16.8549L73.7676 18.1565L76.0762 20.4704L74.2966 22.254L75.5952 23.5555L78.6733 20.4704L76.3648 18.1565Z" fill="white"/>
<path d="M56.1065 33.215L56.9723 34.7093H55.2408L56.1065 33.215ZM56.1065 29.7441L52.2588 36.3965H59.9542L56.1065 29.7441Z" fill="white"/>
<path d="M64.1285 17.0477L62.8299 15.7461L60.6175 17.9636L58.405 15.7461L57.1064 17.0477L59.3189 19.2651L57.1064 21.4826L58.405 22.7841L60.6175 20.5667L62.8299 22.7841L64.1285 21.4826L61.9161 19.2651L64.1285 17.0477Z" fill="white"/>
<path d="M152.084 34.5977C152.28 34.5977 152.465 34.5758 152.64 34.5321C152.814 34.4884 152.977 34.4174 153.13 34.3191C153.424 34.1334 153.653 33.8986 153.817 33.6146C153.991 33.3197 154.078 33.0193 154.078 32.7135V32.14C153.937 32.2493 153.757 32.3366 153.539 32.4022C153.332 32.4677 153.086 32.5278 152.803 32.5824C152.4 32.6589 152.1 32.7244 151.904 32.779C151.708 32.8336 151.534 32.9101 151.381 33.0084C151.25 33.1067 151.152 33.2214 151.087 33.3524C151.021 33.4726 150.989 33.6091 150.989 33.7621C150.989 34.0352 151.081 34.2427 151.266 34.3847C151.452 34.5267 151.724 34.5977 152.084 34.5977ZM154.536 36.531L154.209 34.9417C153.937 35.477 153.533 35.9193 152.999 36.2689C152.465 36.6075 151.757 36.7768 150.874 36.7768C149.85 36.7768 149.082 36.5474 148.569 36.0886C148.068 35.6299 147.817 35.0073 147.817 34.2208C147.817 33.6419 147.926 33.1668 148.144 32.7954C148.373 32.4131 148.678 32.1018 149.06 31.8615C149.19 31.785 149.316 31.714 149.436 31.6485C149.567 31.583 149.697 31.5283 149.828 31.4847C150.09 31.3863 150.395 31.3044 150.743 31.2389C151.092 31.1624 151.523 31.086 152.035 31.0095C152.754 30.9112 153.272 30.802 153.588 30.6818C153.904 30.5617 154.062 30.3487 154.062 30.0428C154.062 29.7698 153.964 29.5513 153.768 29.3875C153.582 29.2127 153.234 29.1253 152.721 29.1253C152.209 29.1253 151.822 29.24 151.561 29.4694C151.299 29.6988 151.158 30.0428 151.136 30.5016H148.112C148.188 29.3984 148.602 28.5137 149.354 27.8474C150.117 27.1702 151.239 26.8315 152.721 26.8315C153.244 26.8315 153.713 26.8698 154.127 26.9462C154.552 27.0227 154.918 27.1374 155.223 27.2903C155.855 27.5852 156.307 28.0057 156.579 28.5519C156.852 29.098 156.988 29.737 156.988 30.4688V36.531H154.536Z" fill="black"/>
<path d="M146.717 36.5314H143.709V23.9155H146.717V36.5314Z" fill="black"/>
<path d="M142.056 36.5314H139.048V23.9155H142.056V36.5314Z" fill="black"/>
<path d="M132.989 36.7768C131.452 36.7768 130.27 36.3781 129.442 35.5807C128.624 34.7834 128.216 33.5928 128.216 32.009V31.714C128.216 31.1788 128.265 30.6873 128.363 30.2394C128.472 29.7807 128.63 29.3711 128.837 29.0106C129.24 28.2897 129.801 27.749 130.521 27.3886C131.251 27.0172 132.079 26.8315 133.006 26.8315C133.485 26.8315 133.932 26.8807 134.346 26.979C134.76 27.0664 135.147 27.2029 135.507 27.3886C136.226 27.76 136.782 28.3116 137.174 29.0434C137.577 29.7643 137.779 30.6545 137.779 31.714V32.009C137.779 32.5332 137.73 33.0193 137.632 33.4671C137.534 33.9041 137.387 34.2973 137.19 34.6468C136.787 35.3568 136.226 35.892 135.507 36.2525C134.798 36.602 133.959 36.7768 132.989 36.7768ZM133.006 34.2044C133.55 34.2044 133.987 34.0187 134.313 33.6474C134.651 33.276 134.82 32.7189 134.82 31.9762V31.714C134.82 30.9385 134.662 30.3541 134.346 29.9609C134.041 29.5568 133.6 29.3547 133.022 29.3547C132.466 29.3547 132.019 29.5513 131.681 29.9445C131.344 30.3269 131.175 30.9167 131.175 31.714V31.9762C131.175 32.708 131.344 33.2651 131.681 33.6474C132.019 34.0187 132.461 34.2044 133.006 34.2044Z" fill="black"/>
<path d="M122.97 36.7939C121.554 36.7939 120.458 36.4935 119.685 35.8928C118.911 35.292 118.447 34.4455 118.295 33.3532H121.368C121.466 33.7355 121.657 34.025 121.941 34.2216C122.235 34.4182 122.627 34.5165 123.117 34.5165C123.586 34.5165 123.924 34.4455 124.131 34.3035C124.349 34.1506 124.458 33.943 124.458 33.6809C124.458 33.5717 124.431 33.4788 124.376 33.4024C124.333 33.315 124.256 33.244 124.147 33.1894C123.951 33.0802 123.684 32.9982 123.346 32.9436C123.009 32.889 122.643 32.8398 122.251 32.7961C121.848 32.7415 121.434 32.6705 121.009 32.5832C120.595 32.4849 120.213 32.3374 119.865 32.1408C119.505 31.9551 119.216 31.6875 118.998 31.338C118.791 30.9884 118.687 30.5297 118.687 29.9617C118.687 29.0332 119.042 28.2796 119.75 27.7007C120.458 27.1108 121.483 26.8159 122.823 26.8159C124.251 26.8159 125.308 27.1108 125.994 27.7007C126.681 28.2796 127.095 29.0442 127.237 29.9945H124.311C124.246 29.6558 124.082 29.4046 123.82 29.2408C123.57 29.066 123.226 28.9786 122.791 28.9786C122.333 28.9786 122.011 29.0551 121.826 29.208C121.641 29.3609 121.548 29.5521 121.548 29.7815C121.548 30.0764 121.739 30.273 122.12 30.3713C122.513 30.4696 123.058 30.5624 123.755 30.6498C124.169 30.7044 124.583 30.7809 124.997 30.8792C125.422 30.9775 125.815 31.1249 126.174 31.3216C126.523 31.5182 126.806 31.7912 127.025 32.1408C127.242 32.4794 127.351 32.9272 127.351 33.4843C127.351 33.801 127.308 34.1014 127.221 34.3854C127.144 34.6694 127.03 34.937 126.877 35.1883C126.55 35.6798 126.06 36.073 125.406 36.3679C124.763 36.6519 123.951 36.7939 122.97 36.7939Z" fill="black"/>
<path d="M115.311 36.5317L113.12 32.8289L110.93 36.5317H107.48L111.289 30.3221L107.873 24.7842H111.159L113.088 28.0447L115.017 24.7842H118.335L114.853 30.3221L118.646 36.5317H115.311Z" fill="black"/>
</g>
<defs>
<clipPath id="clip0_287_12">
<rect width="114" height="50.8571" fill="white" transform="translate(43 5)"/>
</clipPath>
</defs>
</svg>
