<svg width="549" height="106" viewBox="0 0 549 106" fill="none" xmlns="http://www.w3.org/2000/svg">
<path d="M36.384 45.024H8.976L0 36.048V0H8.976V36.048H36.384V0H45.36V36.048L36.384 45.024ZM84.6563 27.024V0H93.6323V45.024H89.8883L57.6323 12.384V45.024H48.6562V0H57.6323L84.6563 27.024ZM105.68 9.024V18H132.656V9.024H105.68ZM123.68 27.024L141.632 45.024H128.912L110.912 27.024H105.632V45.024H96.6562V0H132.656L141.632 9.024V27.024H123.68ZM189.632 45.024H144.656V0H189.632V9.024H153.632V18H189.632V27.024H153.632V36.048H189.632V45.024ZM201.632 9.024V17.616H228.656V9.024H201.632ZM201.632 27.024V45.024H192.656V9.024L201.632 0H228.656L237.632 9.024V45.024H228.656V27.024H201.632ZM285.632 36.048V45.024H240.656V0H249.632V36.048H285.632ZM288.656 0H289.424V0.767999H288.656V0ZM311.484 45.024V36.048H329.484V9.024H311.484V0H356.46V9.024H338.46V36.048H356.46V45.024H311.484ZM368.364 8.88V35.856H395.34V8.88H368.364ZM395.34 44.736H359.484V0H395.34L404.172 8.88V35.856L395.34 44.4V44.736ZM452.46 45.024H407.484V0H452.46V9.024H416.46V18H452.46V27.024H416.46V36.048H452.46V45.024ZM464.46 9.024V17.616H491.484V9.024H464.46ZM464.46 27.024V45.024H455.484V9.024L464.46 0H491.484L500.46 9.024V45.024H491.484V27.024H464.46ZM503.484 9.024L512.46 0H548.844V9.024H512.46V18H548.844V36.384L539.868 45.024H503.484V36.048H539.868V27.408H503.484V9.024ZM0 69.024L8.976 60H45.36V69.024H8.976V78H45.36V96.384L36.384 105.024H0V96.048H36.384V87.408H0V69.024ZM66.6563 105.024V69.024H48.6562V60H93.6323V69.024H75.6323V105.024H66.6563ZM105.632 69.024V77.616H132.656V69.024H105.632ZM105.632 87.024V105.024H96.6562V69.024L105.632 60H132.656L141.632 69.024V105.024H132.656V87.024H105.632ZM153.68 69.024V78H180.656V69.024H153.68ZM171.68 87.024L189.632 105.024H176.912L158.912 87.024H153.632V105.024H144.656V60H180.656L189.632 69.024V87.024H171.68ZM210.656 105.024V69.024H192.656V60H237.632V69.024H219.632V105.024H210.656ZM240.656 60H241.424V60.768H240.656V60ZM272.46 87.024V105.024H263.484V60H272.46V78H299.484V60H308.46V105.024H299.484V87.024H272.46ZM356.46 105.024H311.484V60H356.46V69.024H320.46V78H356.46V87.024H320.46V96.048H356.46V105.024ZM368.508 69.024V78H395.484V69.024H368.508ZM386.508 87.024L404.46 105.024H391.74L373.74 87.024H368.46V105.024H359.484V60H395.484L404.46 69.024V87.024H386.508ZM452.46 105.024H407.484V60H452.46V69.024H416.46V78H452.46V87.024H416.46V96.048H452.46V105.024Z" fill="white"/>
</svg>
