<svg width="684" height="311" viewBox="0 0 684 311" fill="none" xmlns="http://www.w3.org/2000/svg">
<g clip-path="url(#clip0_144_44)">
<path d="M220.95 220.96V199.92H136.78V178.88H220.95V157.84H136.78V136.8H220.95V115.76H115.73V220.98H220.95V220.96Z" fill="white"/>
<path d="M389.3 220.96H410.34V136.79H452.43V115.75H347.22V136.79H389.31V220.96H389.3Z" fill="white"/>
<path d="M21.04 178.87H105.21V157.83H21.04V136.79H105.21V115.75H0V220.97H21.04V178.88V178.87Z" fill="white"/>
<path d="M483.99 63.13H547.12V105.22H568.16V21.04L547.12 0H483.99L462.95 21.04V105.21H483.99V63.12V63.13ZM483.99 21.04H547.12V42.08H483.99V21.04Z" fill="white"/>
<path d="M452.42 105.22V84.18H368.25V63.14H452.42V42.1H368.25V21.06H452.42V0H347.21V105.22H452.42Z" fill="white"/>
<path d="M683.9 84.17H599.73V0.27002H578.69V105.22H683.9V84.18V84.17Z" fill="white"/>
<path d="M315.65 63.13H336.69V21.04L315.65 0H231.48V105.22H252.52V63.13H264.98L307.07 105.22H336.83L294.74 63.13H315.64H315.65ZM252.52 21.04H315.65V42.08H252.52V21.04Z" fill="white"/>
<path d="M84.17 105.22L105.21 84.18V0H84.17V84.17H21.04V0H0V84.17L21.04 105.21H84.17V105.22Z" fill="white"/>
<path d="M199.91 63.13L136.78 0H115.74V105.22H136.78V29.76L212.23 105.21L212.29 98.93V105.21H220.95V0H199.91V63.13Z" fill="white"/>
<path d="M462.95 115.74V136.78H547.12V157.82H462.95V220.95H568.17V199.91H484V178.87H568.17V115.74H462.95Z" fill="#00C9D7"/>
<path d="M578.68 115.74V220.96H683.89V157.83H599.72V136.79H683.89V115.75H578.68V115.74ZM662.86 178.87V199.91H599.73V178.87H662.86Z" fill="#00C9D7"/>
<path d="M231.47 136.78V178.87H315.64V199.64H231.2V220.68H315.64V220.95L336.68 199.91V157.82H252.51V136.78H336.68V115.74H252.51L231.47 136.78Z" fill="white"/>
<path d="M487.02 310.33C481.86 310.33 477.37 309.54 473.53 307.97C469.72 306.39 466.74 304.05 464.59 300.92C462.47 297.8 461.35 293.93 461.24 289.32H474.3C474.47 291.44 475.1 293.23 476.19 294.69C477.28 296.12 478.74 297.2 480.57 297.91C482.4 298.63 484.51 298.98 486.89 298.98C489.27 298.98 491.17 298.65 492.86 297.99C494.58 297.33 495.9 296.41 496.81 295.24C497.76 294.04 498.23 292.65 498.23 291.07C498.23 289.64 497.8 288.43 496.94 287.46C496.11 286.49 494.88 285.66 493.24 284.97C491.64 284.28 489.67 283.67 487.35 283.12L480.35 281.4C474.96 280.11 470.71 278.06 467.59 275.25C464.47 272.41 462.91 268.63 462.91 263.91C462.91 260.04 463.96 256.66 466.05 253.77C468.17 250.85 471.05 248.59 474.69 246.98C478.36 245.35 482.52 244.53 487.19 244.53C491.86 244.53 496.08 245.35 499.61 246.98C503.16 248.61 505.93 250.88 507.9 253.77C509.91 256.66 510.94 260 510.99 263.78H497.97C497.74 261.29 496.67 259.34 494.75 257.94C492.86 256.54 490.3 255.83 487.06 255.83C484.88 255.83 483.02 256.15 481.47 256.78C479.95 257.38 478.79 258.23 477.99 259.32C477.19 260.41 476.79 261.65 476.79 263.06C476.79 264.55 477.25 265.81 478.17 266.84C479.09 267.84 480.3 268.67 481.82 269.33C483.37 269.96 485.06 270.49 486.89 270.92L492.6 272.34C495.38 272.97 497.94 273.82 500.29 274.88C502.64 275.91 504.67 277.19 506.39 278.71C508.14 280.23 509.48 282.02 510.43 284.08C511.38 286.11 511.85 288.46 511.85 291.13C511.85 295.05 510.86 298.46 508.89 301.36C506.94 304.23 504.12 306.44 500.43 308.02C496.73 309.57 492.27 310.34 487.02 310.34V310.33ZM539.7 310.37C534.77 310.37 530.52 309.37 526.94 307.36C523.36 305.36 520.61 302.5 518.69 298.81C516.8 295.09 515.85 290.69 515.85 285.62C515.85 280.55 516.8 276.37 518.69 272.64C520.61 268.92 523.3 266.01 526.77 263.92C530.26 261.83 534.36 260.78 539.06 260.78C542.24 260.78 545.2 261.29 547.95 262.33C550.7 263.33 553.11 264.85 555.17 266.88C557.23 268.89 558.84 271.42 559.98 274.49C561.13 277.53 561.7 281.09 561.7 285.19V288.8H521.14V280.59H555.26L549.07 282.74C549.07 280.3 548.7 278.18 547.95 276.38C547.21 274.58 546.09 273.19 544.6 272.21C543.14 271.21 541.32 270.71 539.14 270.71C536.96 270.71 535.12 271.21 533.6 272.21C532.11 273.21 530.96 274.57 530.16 276.29C529.36 278.01 528.96 279.99 528.96 282.22V288.02C528.96 290.63 529.42 292.86 530.34 294.72C531.26 296.55 532.53 297.97 534.16 298.97C535.82 299.94 537.73 300.43 539.87 300.43C541.36 300.43 542.71 300.22 543.91 299.79C545.11 299.36 546.15 298.73 547 297.9C547.89 297.07 548.55 296.07 548.98 294.89L561.27 295.71C560.67 298.66 559.41 301.24 557.49 303.45C555.6 305.63 553.15 307.33 550.14 308.56C547.13 309.76 543.65 310.37 539.7 310.37ZM589.03 310.37C584.19 310.37 579.99 309.34 576.44 307.28C572.92 305.19 570.2 302.3 568.28 298.6C566.39 294.88 565.44 290.55 565.44 285.62C565.44 280.69 566.39 276.29 568.28 272.6C570.2 268.88 572.92 265.98 576.44 263.92C579.99 261.83 584.19 260.78 589.03 260.78C593.87 260.78 598.1 261.82 601.62 263.92C605.17 265.98 607.89 268.88 609.78 272.6C611.7 276.3 612.66 280.64 612.66 285.62C612.66 290.6 611.7 294.87 609.78 298.6C607.89 302.3 605.17 305.19 601.62 307.28C598.1 309.34 593.9 310.37 589.03 310.37ZM589.11 299.97C591.32 299.97 593.16 299.35 594.65 298.12C596.14 296.86 597.26 295.14 598 292.96C598.77 290.78 599.16 288.31 599.16 285.53C599.16 282.75 598.77 280.24 598 278.1C597.26 275.95 596.14 274.26 594.65 273.03C593.16 271.8 591.31 271.18 589.11 271.18C586.91 271.18 585 271.8 583.48 273.03C581.99 274.26 580.86 275.95 580.09 278.1C579.34 280.25 578.97 282.73 578.97 285.53C578.97 288.33 579.34 290.79 580.09 292.96C580.86 295.14 581.99 296.86 583.48 298.12C585 299.35 586.88 299.97 589.11 299.97ZM649.31 289.01V261.38H662.59V309.42H649.83V300.7H649.31C648.22 303.48 646.43 305.74 643.94 307.49C641.45 309.21 638.4 310.05 634.79 310.02C631.58 310.02 628.75 309.3 626.28 307.87C623.85 306.41 621.94 304.33 620.56 301.64C619.21 298.95 618.54 295.73 618.54 291.97V261.38H631.82V289.65C631.82 292.46 632.58 294.69 634.1 296.35C635.62 297.98 637.64 298.79 640.16 298.76C641.76 298.76 643.25 298.4 644.63 297.69C646.01 296.95 647.12 295.84 647.98 294.38C648.87 292.92 649.31 291.13 649.31 289.01ZM683.73 245.4V309.42H670.45V245.4H683.73Z" fill="#00C9D7"/>
</g>
<defs>
<clipPath id="clip0_144_44">
<rect width="683.9" height="310.37" fill="white"/>
</clipPath>
</defs>
</svg>
