<svg width="553" height="55" viewBox="0 0 553 55" fill="none" xmlns="http://www.w3.org/2000/svg">
<g clip-path="url(#clip0_143_2)">
<path fill-rule="evenodd" clip-rule="evenodd" d="M20 47.5C31.0456 47.5 40 38.5456 40 27.5C40 16.4544 31.0456 7.5 20 7.5C8.95438 7.5 0 16.4544 0 27.5C0 38.5456 8.95438 47.5 20 47.5ZM25.1156 38.6191C30.0063 36.3091 31.5394 32.0431 31.8844 30.3813C30.0962 32.2125 28.1178 34.0688 26.7872 32.7838C26.7872 32.7838 26.7144 25.9259 26.7144 23.1141C26.7144 19.3328 30.3003 16.5147 30.3003 16.5147C28.3281 16.8659 25.96 17.5681 23.4463 20.035C23.2194 20.26 23.0044 20.4963 22.8019 20.7434C21.7247 19.9188 20.3288 20.1659 20.3288 20.1659C21.0831 20.5803 21.8359 21.7872 21.8359 22.7863V32.6069C21.8359 32.6069 20.1912 34.0537 18.9237 34.0537C18.6381 34.0559 18.3559 33.9897 18.1009 33.8606C17.8459 33.7316 17.6256 33.5434 17.4584 33.3119C17.3581 33.1809 17.275 33.0375 17.2113 32.8853V20.7522C16.8366 21.0613 15.5703 21.3159 15.5703 19.2141C15.5703 17.9081 16.5112 16.3516 18.1869 15.3969C15.8859 15.7478 13.7309 16.7419 11.9706 18.2644C10.6331 19.42 9.56344 20.8534 8.83594 22.4644C8.10844 24.0753 7.74031 25.8253 7.7575 27.5931C7.7575 27.5931 8.98281 23.7647 10.5175 23.4109C10.7409 23.3522 10.9753 23.3462 11.2016 23.3941C11.4278 23.4419 11.6397 23.5416 11.8206 23.6859C12.0016 23.83 12.1459 24.0144 12.2428 24.2244C12.3397 24.4344 12.3862 24.6641 12.3784 24.895V33.8844C12.3784 34.7956 11.7909 34.9947 11.2481 34.985C10.8803 34.9591 10.5169 34.8906 10.165 34.7809C11.2856 36.2975 12.7419 37.5347 14.4197 38.3953C16.0975 39.2559 17.9519 39.7169 19.8375 39.7422L23.1516 36.4109L25.1156 38.6191Z" fill="white"/>
</g>
<path d="M197.994 30.4987L215.993 30.4987L215.993 42.4997L221.993 42.4997L221.993 18.5005L215.993 12.5L197.994 12.5L191.993 18.5005L191.993 42.4997L197.994 42.4997L197.994 30.4987ZM197.994 18.5005L215.993 18.5005L215.993 24.501L197.994 24.501L197.994 18.5005Z" fill="white"/>
<path d="M188.987 42.4997L188.987 36.4992L164.988 36.4992L164.988 30.4987L188.987 30.4987L188.987 24.4982L164.988 24.4982L164.988 18.4977L188.987 18.4977L188.987 12.5L164.988 12.5L158.988 12.5L158.988 42.4997L188.987 42.4997Z" fill="white"/>
<path d="M254.984 36.4981L230.985 36.4981L230.985 12.5771L224.985 12.5771L224.985 42.4986L254.984 42.4986L254.984 36.4981Z" fill="white"/>
<path d="M149.987 30.4987L155.987 30.4987L155.987 18.5005L149.987 12.5L125.988 12.5L125.988 42.4997L131.988 42.4997L131.988 30.4987L135.541 30.4987L147.54 42.4997L156.026 42.4997L144.028 30.4987L149.987 30.4987ZM131.985 18.5005L149.984 18.5005L149.984 24.501L131.985 24.501L131.985 18.5005Z" fill="white"/>
<path d="M83.9995 42.4997L90 36.4992L90 12.5L83.9995 12.5L83.9995 36.4992L66.0008 36.4992L66.0008 12.5L60.0003 12.5L60.0003 36.4992L66.0008 42.4997L83.9995 42.4997Z" fill="white"/>
<path d="M116.99 30.4987L98.991 12.5L92.9905 12.5L92.9905 42.4997L98.991 42.4997L98.991 20.9867L120.504 42.4997L120.521 40.7091L120.521 42.4997L122.99 42.4997L122.99 12.5L116.99 12.5L116.99 30.4987Z" fill="white"/>
<path d="M329.475 42.5L329.475 36.5L305.477 36.5L305.477 30.5L329.475 30.5L329.475 24.5L305.477 24.5L305.477 18.5L329.475 18.5L329.475 12.5L299.48 12.5L299.48 42.4972L329.475 42.4972L329.475 42.5Z" fill="white"/>
<path d="M377.49 42.4972L383.49 42.4972L383.49 18.5L395.487 18.5L395.487 12.5L365.49 12.5L365.49 18.5L377.487 18.5L377.487 42.4972L377.49 42.4972Z" fill="white"/>
<path d="M272.41 30.5L296.407 30.5L296.407 24.5L272.41 24.5L272.41 18.5L296.407 18.5L296.407 12.5L266.41 12.5L266.41 42.4972L272.41 42.4972L272.41 30.4972L272.41 30.5Z" fill="white"/>
<path d="M398.512 12.5L398.512 18.5L422.509 18.5L422.509 24.5L398.512 24.5L398.512 42.4972L428.509 42.4972L428.509 36.4972L404.512 36.4972L404.512 30.4972L428.509 30.4972L428.509 12.5L398.512 12.5Z" fill="#00C9D7"/>
<path d="M431.472 12.5L431.472 42.4972L461.469 42.4972L461.469 24.5L437.472 24.5L437.472 18.5L461.469 18.5L461.469 12.5L431.472 12.5ZM455.469 30.4972L455.469 36.4972L437.472 36.4972L437.472 30.4972L455.469 30.4972Z" fill="#00C9D7"/>
<path d="M332.499 18.5L332.499 30.5L356.496 30.5L356.496 36.4218L332.423 36.4218L332.423 42.4218L356.496 42.4218L356.496 42.5L362.496 36.5L362.496 24.5L338.499 24.5L338.499 18.5L362.496 18.5L362.496 12.5L338.499 12.5L332.499 18.5Z" fill="white"/>
<defs>
<clipPath id="clip0_143_2">
<rect width="40" height="40" fill="white" transform="translate(0 7.5)"/>
</clipPath>
</defs>
</svg>
